<?xml version="1.0" encoding="UTF-8"?>
<svg id="Capa_2" data-name="Capa 2" xmlns="http://www.w3.org/2000/svg" viewBox="0 0 555.07 554.82">
  <defs>
    <style>
      .cls-1 {
        fill: #fff;
      }
    </style>
  </defs>
  <g id="Capa_1-2" data-name="Capa 1">
    <g>
      <path id="Trazado_117" data-name="Trazado 117" class="cls-1" d="m212.78,259.05c-13.54,0-26.41-.11-39.29.14-1.99.36-3.77,1.46-4.98,3.09-10.11,12.39-20.12,24.86-30.03,37.41-3.06,3.88-6.47,6.85-11.76,5.08-5.51-1.85-6.58-6.3-6.51-11.56.15-11.14.05-22.29.05-33.87-2.23-.11-4.09-.27-5.94-.28-13.49-.02-26.98.13-40.47-.06-15.06.11-27.37-12-27.5-27.06-.16-68.22-.16-136.45,0-204.67,0-15.01,12.16-27.18,27.17-27.18.06,0,.12,0,.18,0C154.06-.03,234.42-.03,314.78.09c15.1-.06,27.39,12.13,27.45,27.23,0,.16,0,.33,0,.49.18,15.18.04,30.37.04,46.22h117.62c19.18,0,30.4,11.31,30.41,30.62.02,53.57.02,107.15,0,160.73,0,19.32-11.23,30.62-30.41,30.65-20.41.02-40.83,0-62.1,0v24.26c0,3.66-.08,7.33,0,10.98.68,4.59-2.04,9-6.45,10.45-4.19,1.38-8.77-.33-11.02-4.13-9.25-11.6-18.82-22.97-27.66-34.86-3.19-4.76-8.73-7.38-14.43-6.84-31.01.35-62.07-.47-93.07.38-20.72.57-34.23-14.07-32.4-32.38.13-1.32,0-2.68,0-4.85m-73.98,10.56c6.63-8.25,12.48-15.06,17.77-22.29,3.16-4.68,8.58-7.3,14.21-6.89,46.82.21,93.64.12,140.46.11,9.53,0,12.58-2.96,12.58-12.28V30.57c0-8.99-3.11-12.04-12.25-12.04H76.85c-9.05,0-12.1,3.06-12.1,12.17-.01,65.9-.01,131.8,0,197.69,0,9.07,3.06,12.14,12.12,12.15,16.96.03,33.91-.03,50.87.03,7.57.03,10.89,3.4,11,10.94.08,5.5,0,11,0,18.11m203.52-177.09v135.83c0,19.56-11.23,30.68-30.92,30.69-24.46.01-48.93.01-73.39,0h-6.07c-1.94,12.63-.22,18.9,14.87,18.67,33.9-.52,67.81-.09,101.71-.25,4.86-.29,9.52,1.96,12.31,5.94,5.64,7.46,11.65,14.63,17.47,21.89.6-.41.86-.51.87-.6.08-5,.15-10,.19-15.01.07-9.08,3.06-12.12,12.13-12.13,22.92-.02,45.85,0,68.77-.02,8.31,0,11.59-3.25,11.6-11.51.03-53.94.03-107.87,0-161.81,0-8.54-3.25-11.67-12-11.68-31.21-.02-62.41-.02-93.62,0h-23.91Z"/>
      <path id="Trazado_118" data-name="Trazado 118" class="cls-1" d="m258.84,490.33v-10.46c-13.08-1.91-26.1-4.21-39.22-5.57-12.31-.74-24.14-5.02-34.07-12.32-10.94-8.21-22.32-15.81-34.1-22.76-4.22-2.58-9.04-4.03-13.98-4.21-29.86-.38-59.74-.23-89.61-.18-15.28-.93-28.42,10.7-29.36,25.98-.07,1.12-.07,2.25,0,3.37-.05,27.94-.05,55.89,0,83.83v6.67H0v-88.92c.02-30.03,19.48-49.41,49.6-49.44h8.67c-15.07-12.5-22.42-27.35-21.05-45.69.83-13.27,7.02-25.63,17.16-34.23,20.71-18.18,52.14-16.56,70.87,3.66,18.14,19.7,19.95,53.32-7.62,76.27,6.75,0,12.38.23,17.99-.05,9.89-.48,19.65,2.42,27.66,8.24,11.25,7.77,22.91,14.96,33.99,22.95,6.42,4.56,13.92,7.36,21.76,8.12,16.24,1.99,32.42,4.53,48.62,6.89,7.17,1.05,9.8,3.96,9.87,11.02.08,8.29.11,16.58,0,24.86.66,5.1-2.93,9.77-8.03,10.43-.76.1-1.54.1-2.3.01-20.81.1-41.63.12-62.43-.07-2.86-.17-5.65-.95-8.18-2.3-11.25-5.47-22.38-11.19-33.57-16.79-1.66-.83-3.41-1.5-5.74-2.51v67.68h-18.15c-.11-1.61-.32-3.27-.32-4.92-.02-25.05-.02-50.1,0-75.16,0-11.14,6.12-14.8,16.26-9.77,15.51,7.71,30.94,15.56,46.51,23.14,2.72,1.33,5.7,2.06,8.73,2.14,15.97.2,31.95.1,48.55.1m-138.57-115.05c.33-17.88-13.9-32.63-31.77-32.96-17.88-.33-32.63,13.9-32.96,31.77-.33,17.88,13.9,32.63,31.77,32.96,0,0,0,0,0,0,17.86.28,32.59-13.92,32.96-31.77"/>
      <path id="Trazado_119" data-name="Trazado 119" class="cls-1" d="m554.79,554.8h-18.22v-98.94c0-13.73-7.32-21.05-21.02-21.05-35.45-.02-70.89-.02-106.34,0-13.35,0-20.63,7.35-20.64,20.81-.03,30.83-.03,61.65,0,92.47v6.61h-18.5v-97.69c0-25.53,15.09-40.69,40.46-40.71h21.66c-25.75-28.99-27-58.28-3.95-79.24,20.51-18.72,52.23-17.57,71.33,2.57,18.18,19.29,20.81,53.16-7.21,76.65h22.59c18.9,0,32.7,9.03,38,25.14,1.25,3.64,1.93,7.44,2.02,11.29.16,33.14.1,66.27.09,99.41,0,.74-.14,1.48-.26,2.64m-59.87-179.8c.17-17.88-14.18-32.51-32.06-32.68-17.88-.17-32.51,14.18-32.68,32.06-.17,17.87,14.18,32.5,32.05,32.68,17.86.14,32.48-14.2,32.68-32.06"/>
      <rect id="Rectángulo_110" data-name="Rectángulo 110" class="cls-1" x="37.45" y="462.81" width="17.73" height="91.98"/>
      <rect id="Rectángulo_111" data-name="Rectángulo 111" class="cls-1" x="407.53" y="462.71" width="17.59" height="91.98"/>
      <rect id="Rectángulo_112" data-name="Rectángulo 112" class="cls-1" x="499.87" y="463.05" width="17.79" height="91.77"/>
      <path id="Trazado_120" data-name="Trazado 120" class="cls-1" d="m286.87,102.44c.16,6.34-3.24,12.23-8.8,15.27-3.14,1.2-4.87,4.58-3.98,7.82.28,1.71.3,3.46.07,5.18-1.23,4.91,1.22,9.99,5.82,12.09,6.84,4.41,9.05,13.39,5.05,20.48-4.56,8.46-9.52,16.73-14.89,24.7-5.27,7.82-14.6,9.63-23.6,4.84-3.15-1.68-5.5-2.12-8.12.5-.84.81-1.82,1.44-2.89,1.88-6.37,2.68-10.68,6.16-11.37,14.2-.63,7.27-7.82,12.27-15.31,12.51-9.62.3-19.26.33-28.88,0-9.34-.27-16.75-7.96-16.67-17.3-.14-3.12-.8-5.09-3.94-5.97-1.29-.4-2.5-1.02-3.58-1.84-5.74-4.25-11.03-6.22-18.54-2.3-6.87,3.59-15.16-.59-19.73-7.81-4.53-7.14-8.95-14.37-13.13-21.73-4.98-7.53-2.91-17.67,4.62-22.65.44-.29.9-.57,1.37-.82,3.25-1.35,5-4.88,4.12-8.29-.15-.95-.17-1.92-.06-2.88.77-6.17.06-10.89-6.41-14.7-6.89-4.05-8.13-13.35-4.08-20.65,4.48-8.07,9.22-16.02,14.31-23.71,4.79-7.54,14.65-10.01,22.43-5.61,3.43,2.58,8.26,2.13,11.15-1.05.71-.65,1.54-1.17,2.43-1.53,5.71-1.57,9.73-6.68,9.91-12.6,1.16-8.04,8.26-13.86,16.36-13.43,9.05-.18,18.1-.18,27.15,0,9.5-.19,17.35,7.36,17.54,16.85,0,.06,0,.12,0,.18.16,3.7,1.29,5.68,4.7,6.68,1.1.36,2.13.89,3.06,1.58,5.59,3.92,10.69,6.17,17.99,2.3,6.45-3.14,14.23-.91,18.03,5.18,6.19,8.75,11.28,18.3,16.66,27.62.66,1.59,1.07,3.26,1.21,4.98m-79.88,100.8c-1.39-12.2,5.47-18.3,15.66-21.97,1.64-.59,3.17-1.43,4.53-2.51,8.84-7.08,18.08-9.19,28.33-1.91l11.98-19.87c-11.79-8.26-12.43-9.6-11.87-23.87.17-1.92.17-3.85,0-5.77-1.57-10.87.46-20.04,12.09-24.78l-12.11-20.02c-12.73,6.12-15.69,5.85-26.88-1.19-3.72-2.35-7.82-4.11-11.75-6.12-5.95-2.7-9.84-8.54-10.05-15.06-.08-1.45-.33-2.9-.48-4.21h-24.84c1.04,11.3-4.69,17.54-14.33,21.37-3.83,1.8-7.49,3.93-10.96,6.36-5.54,3.79-12.72,4.21-18.67,1.09-1.49-.73-3.03-1.36-4.8-2.15l-12.1,20.05c11.67,4.52,13.67,13.53,12.19,24.23-.27,1.91-.26,3.86.03,5.77,1.67,10.64-.97,19.14-12.12,23.86l12.3,20.38c10.12-7.27,19.22-5.17,27.94,1.63,1.36,1.08,2.88,1.95,4.51,2.56,10.36,3.73,17.26,10.03,16.12,22.16h25.25Z"/>
      <path id="Trazado_121" data-name="Trazado 121" class="cls-1" d="m240.51,129.6c-.04,25.54-20.78,46.21-46.32,46.17-25.54-.04-46.21-20.78-46.17-46.32.04-25.47,20.67-46.11,46.14-46.17,25.58-.01,46.33,20.71,46.35,46.29v.03m-46.34,27.67c15.31.06,27.77-12.31,27.83-27.62.06-15.31-12.31-27.77-27.62-27.83-15.19-.06-27.59,12.12-27.82,27.3-.17,15.37,12.14,27.96,27.51,28.14.04,0,.07,0,.11,0"/>
    </g>
  </g>
</svg>