<?xml version="1.0" encoding="UTF-8"?>
<svg id="Capa_2" data-name="Capa 2" xmlns="http://www.w3.org/2000/svg" viewBox="0 0 502.06 154.54">
  <defs>
    <style>
      .cls-1 {
        fill: #fff;
      }
    </style>
  </defs>
  <g id="Capa_1-2" data-name="Capa 1">
    <g>
      <path class="cls-1" d="m188.83,154.47h-51.37c.73-2.28,1.43-4.49,2.14-6.7,13.41-41.74,26.82-83.47,40.22-125.21,1.19-3.72,2.19-7.5,1.92-11.43-.13-1.92-.59-3.88-1.25-5.69-.89-2.43-2.77-4.12-5.1-5.41.35,0,.7,0,1.05,0,20.57,0,41.14,0,61.7-.03,1.08,0,1.55.3,1.94,1.33,14.25,38.06,28.54,76.1,42.82,114.15,1.37,3.64,2.73,7.27,4.1,10.91.12.31.25.61.74,1.21.15-.29.24-.63.45-.88,13.75-16.27,27.51-32.53,41.29-48.77.6-.71.48-1.14.02-1.8-17.36-24.99-34.7-50-52.04-75-.21-.3-.41-.61-.7-1.03.36-.04.6-.09.85-.09,16.74,0,33.48,0,50.22-.03.77,0,1.05.36,1.37.91,8.44,14.81,16.89,29.62,25.33,44.43.3.53.61,1.05.99,1.7.29-.31.52-.53.73-.77,6.87-8.11,13.75-16.22,20.61-24.35,2.52-2.98,4.1-6.37,4.17-10.33.09-5.09-2.27-8.7-6.8-10.96-.33-.16-.67-.31-1.2-.56h68.08c-.24.32-.42.57-.62.81-17.11,20.21-34.22,40.43-51.33,60.64-2.08,2.46-4.13,4.94-6.25,7.35-.57.64-.53,1.05-.06,1.72,14.45,20.83,28.88,41.67,43.31,62.52,4.7,6.79,9.41,13.58,14.11,20.37.19.27.36.56.61.95-.38.03-.67.07-.95.07-16.67,0-33.34,0-50.01.03-.86,0-1.17-.4-1.52-1.01-10.04-17.56-20.09-35.12-30.15-52.67-.28-.5-.58-.99-.92-1.56-.24.21-.45.36-.61.56-9.17,10.83-18.35,21.65-27.47,32.51-2.44,2.9-3.93,6.25-3.8,10.13.13,3.83,1.82,7.02,4.24,9.87.59.69,1.23,1.33,1.99,2.15-.52,0-.87,0-1.23,0-23.52,0-47.03,0-70.55.02-.93,0-1.34-.26-1.66-1.13-3.92-10.65-7.9-21.28-11.82-31.93-.35-.94-.77-1.28-1.8-1.28-18.74.03-37.48.03-56.21,0-1.04,0-1.46.33-1.76,1.3-1.31,4.22-2.7,8.42-4.07,12.63-2.05,6.31-.54,11.93,3.35,17.06.86,1.13,1.86,2.14,2.88,3.29Zm7.92-64.24h37.82c-6.79-18.09-13.52-36.03-20.26-53.97h-.25c-5.76,17.95-11.52,35.89-17.31,53.97Z"/>
      <path class="cls-1" d="m.03.02c.2,0,.4,0,.6,0,27.41,0,54.82-.04,82.23.04,8.22.02,16.34,1.02,24.05,4.16,11.02,4.48,17.54,12.68,19.88,24.23,1.59,7.88,1.64,15.79-.15,23.66-2.49,10.99-9.19,18.04-20.04,21.15-.78.22-1.55.48-2.32.72-.05.02-.08.1-.2.27,1.33.52,2.63,1.01,3.91,1.54,6.88,2.85,12.7,7.05,16.98,13.23,3.6,5.2,5.55,11,6.32,17.24.8,6.48.56,12.91-1.31,19.19-3.57,11.93-11.32,20.19-22.6,25.22-6.05,2.7-12.43,3.85-19.05,3.85-24.6,0-49.2,0-73.79,0-.44,0-.88,0-1.49,0,0-.5,0-.96,0-1.41,0-41.64,0-83.28,0-124.93,0-5.33-.39-10.61-2.05-15.72C9.28,7.16,6.35,2.86,1.01.59.67.45.34.29,0,.14c0,0,.01-.06.03-.12Zm51.77,124.48c.45.03.74.06,1.04.06,8.53,0,17.07.02,25.6,0,6.05-.02,10.74-3.36,12.67-9.11,1.7-5.06,1.65-10.19-.03-15.24-1.53-4.61-4.66-7.76-9.37-9.06-2.19-.6-4.52-.93-6.79-.97-7.28-.12-14.56-.02-21.84-.07-1.02,0-1.31.25-1.31,1.29.04,10.62.02,21.25.02,31.87v1.22Zm.07-94.46c-.03.26-.07.39-.07.52,0,9.61,0,19.22-.02,28.83,0,.62.21.82.82.82,8.13-.02,16.26.04,24.38-.06,5.43-.07,9.72-3.26,11.51-8.39,1.53-4.38,1.46-8.84.22-13.26-1.14-4.08-3.84-6.7-7.93-7.78-1.55-.41-3.19-.68-4.8-.69-7.72-.07-15.44-.04-23.16-.04-.3,0-.59.03-.96.06Z"/>
      <path class="cls-1" d="m459.91,154.46c0-.56,0-1.06,0-1.56,0-41.5,0-83.01,0-124.51,0-5.53-.35-11.02-2.02-16.34-.35-1.13-.77-2.24-1.27-3.31-1.82-3.97-4.6-6.98-8.76-8.64h54.2v154.36h-42.15Z"/>
    </g>
  </g>
</svg>