<?xml version="1.0" encoding="UTF-8"?>
<svg id="Capa_2" data-name="Capa 2" xmlns="http://www.w3.org/2000/svg" viewBox="0 0 686.66 158.8">
  <defs>
    <style>
      .cls-1 {
        fill: #fff;
      }
    </style>
  </defs>
  <g id="Capa_1-2" data-name="Capa 1">
    <g>
      <path class="cls-1" d="m99.98,79.95s22.9-7.1,22.9-35.64c0-36.45-39.19-36.77-39.19-36.77H13.22L0,52.05h11.93l-.16,103.69h72.08c18.87,0,42.73-7.9,42.73-38.54s-26.61-37.25-26.61-37.25Zm-29.01,35.44h-16.27v-20.2h16.27c5.58,0,10.1,4.52,10.1,10.1s-4.52,10.1-10.1,10.1Zm0-48.38h-16.27v-20.2h16.27c5.58,0,10.1,4.52,10.1,10.1s-4.52,10.1-10.1,10.1Z"/>
      <path class="cls-1" d="m209.4,4.47c-42.62,0-77.16,34.55-77.16,77.16s34.55,77.16,77.16,77.16,77.16-34.55,77.16-77.16S252.02,4.47,209.4,4.47Zm0,109.82c-18.04,0-32.66-14.62-32.66-32.66s14.62-32.66,32.66-32.66,32.66,14.62,32.66,32.66-14.62,32.66-32.66,32.66Z"/>
      <path class="cls-1" d="m399.53,7.38l-12.34,44.75s-17.66-9.68-31.2-9.68-15.56,5.4-15.56,8.79,4.5,7.6,26.33,14.55,35.92,18.34,35.92,46.4-25.64,46.6-54.91,46.6-54.18-12.58-54.18-12.58l12.22-43.18s18.99,13.98,37.86,13.79c11.73-.12,12.58-5.44,12.58-8.22s-1.21-6.77-20.2-12.82c-18.99-6.05-43.78-15.24-43.78-48.26S326.72-.97,358.77,7.38l1.57-7.38,39.19,7.38Z"/>
      <path class="cls-1" d="m488.33,114.29c-18.04,0-32.66-14.62-32.66-32.66s14.62-32.66,32.66-32.66c11.78,0,22.07,6.26,27.81,15.6l24.41-48.86L502.45.85l-1.4,4.69c-4.14-.69-8.39-1.06-12.72-1.06-42.62,0-77.16,34.55-77.16,77.16s34.55,77.16,77.16,77.16c18.66,0,35.77-6.62,49.11-17.65l-20.16-44.45c-5.45,10.45-16.36,17.59-28.96,17.59Z"/>
      <path class="cls-1" d="m643.48,7.26h-74.99l-11.49,43.66h12.7l-31.33,105.71h48.02l4.6-20.32h41.85l4.6,20.32h49.23L643.48,7.26Zm-43.9,90.47l12.22-50.19,12.22,50.19h-24.43Z"/>
    </g>
  </g>
</svg>