<?xml version="1.0" encoding="UTF-8"?>
<svg id="Capa_2" data-name="Capa 2" xmlns="http://www.w3.org/2000/svg" viewBox="0 0 764.98 209.8">
  <defs>
    <style>
      .cls-1 {
        fill: #fff;
      }
    </style>
  </defs>
  <g id="Capa_1-2" data-name="Capa 1">
    <g>
      <path class="cls-1" d="m295.34,209.8c-3.11-1.05-6.3-1.92-9.33-3.18-9.61-4-13.18-11.77-9.97-21.84,2.42-7.58,5.11-15.07,7.65-22.61.41-1.22.69-2.49,1.23-4.47-2.26,0-4.04,0-5.82,0-10.82,0-21.64.09-32.45-.04-8.11-.1-14.35-5.87-14.3-12.91.06-8.24,6.18-14.56,14.46-14.6,14.15-.07,28.29-.1,42.43.15,3.8.07,5.54-1.19,6.81-4.72,3.47-9.67,7.66-19.09,11.02-28.79,4.43-12.8,13.48-19.05,26.67-19.21,21.63-.26,43.27-.37,64.9,0,12.63.21,21.12,12.61,17,24.75-5.05,14.91-10.58,29.67-16.34,44.33-3.38,8.61-10.93,10.97-19.51,10.97-19.14,0-38.28.13-57.41-.12-4.34-.06-6.84,1.02-7.94,5.35-.73,2.87-2.2,5.55-3.13,8.38-1.57,4.77.04,7.7,4.91,9,1.59.42,3.28.63,4.92.62,28.62-.03,57.24-.12,85.87-.17,14.51-.03,20.54-4.26,25.49-18.13,12.53-35.13,25.04-70.28,37.55-105.42,5.29-14.84,10.55-29.68,15.87-44.5,2.09-5.82,5.6-10.24,12.29-10.84,12.13-1.1,18.9,7.64,14.85,19.68-5.33,15.87-11.1,31.59-16.7,47.37-11.47,32.34-22.96,64.68-34.41,97.03-4.04,11.4-2.13,14.07,9.85,14.07,21.34,0,22.42-.78,29.55-21.02,17.13-48.63,34.21-97.28,51.55-145.83,1.25-3.51,3.97-6.9,6.86-9.35,5.61-4.74,12.39-4.81,17.52-1.1,5.52,3.99,8.01,12.04,5.74,18.54-6.06,17.38-12.11,34.75-18.15,52.14-.54,1.55-.98,3.13-1.42,4.54,23.08-2.78,46.12-.83,69.1-1.31,1.64-.03,3.73-.17,4.86.71,5.57,4.34,10.78,2.33,16.4.1,2.65-1.05,5.89-.82,8.87-.83,12.98-.08,25.96-.05,38.94-.03,15.95.03,23.72,11.31,18.34,26.49-7.53,21.25-15.06,42.51-22.52,63.78-3.47,9.9-.82,13.57,9.8,13.61,14.15.06,28.29-.09,42.44.05,9.79.09,14.9,4.72,15.26,13.34.38,9.17-5.35,15.04-15.21,15.11-18.64.12-37.28.03-55.92.03-4.49,0-8.99.15-13.48-.06-14.97-.67-23.17-12.58-18.29-26.65,7.05-20.36,14.26-40.68,21.39-61.01.6-1.72,1.22-3.44,1.75-5.18,2.59-8.52.45-11.49-8.29-11.53-4.83-.02-9.65.02-14.48-.05-8.2-.12-13.77,3.93-16.48,11.29-9.52,25.82-18.87,51.71-28.04,77.65-3.44,9.73-10.85,15.66-21.22,15.66-26.79,0-53.59-.08-80.38-.14-1,0-2.08.18-2.98-.12-4.67-1.57-9.3-4.58-13.94-4.57-4.61,0-9.14,4.23-13.82,4.46-14.11.7-28.27.55-42.4.28-3.32-.06-6.59-1.93-9.91-2.86-1.15-.32-2.54-.74-3.56-.37-3.25,1.18-6.37,2.71-9.54,4.11h-124.84Zm262.85-29.7c6.49,0,12.98.15,19.46-.04,8.01-.23,14.35-3.76,17.21-11.33,6.73-17.83,13.13-35.79,19.38-53.79,2.34-6.73-.35-10.35-7.45-10.45-12.81-.18-25.62-.24-38.43,0-10.5.19-16.11,4.5-19.78,14.4-5.53,14.92-11.06,29.84-16.54,44.77-.85,2.32-1.68,4.71-2.08,7.14-1.01,6.18,1.46,9.14,7.76,9.27,6.82.14,13.64.03,20.46.04Zm-231.56-50.07c15.15,0,29.24.18,43.31-.19,2.08-.05,4.98-2.24,5.97-4.2,2.05-4.09,3.27-8.65,4.48-13.11,1.16-4.3-.44-6.54-4.77-6.6-12.11-.15-24.23-.25-36.34.05-2.02.05-5.06,1.8-5.77,3.52-2.62,6.36-4.45,13.04-6.88,20.52Z"/>
      <path class="cls-1" d="m714.72,2.96c7.64-.04,13.96,6.32,13.86,13.96-.1,7.44-6.26,13.51-13.75,13.54-7.45.03-13.7-6.03-13.86-13.43-.16-7.61,6.11-14.02,13.75-14.06Z"/>
      <g>
        <path class="cls-1" d="m165.83,96.03c-30.53,0-55.28,24.75-55.28,55.28s24.75,55.28,55.28,55.28,55.28-24.75,55.28-55.28-24.75-55.28-55.28-55.28Zm-37.87,55.28c0-7.6,2.24-14.66,6.09-20.59,1.75,6.06,5.58,14.76,13.86,21.87,14.3,12.26,17.36,8.68,24.51,15.66,4.72,4.61,8.4,12.26,10.36,16.93-5.1,2.56-10.86,4.01-16.95,4.01-20.92,0-37.87-16.96-37.87-37.87Zm69.19,21.29c-1.64-5.22-5.57-12.2-14.68-19.68-13.28-10.89-18.89-7.32-26.72-19.23-3.81-5.8-5.48-11.87-6.19-16.58,4.93-2.35,10.45-3.67,16.28-3.67,20.92,0,37.87,16.96,37.87,37.87,0,7.9-2.42,15.23-6.55,21.29Z"/>
        <path class="cls-1" d="m55.28,96.03C24.75,96.03,0,120.78,0,151.31s24.75,55.28,55.28,55.28,55.28-24.75,55.28-55.28-24.75-55.28-55.28-55.28Zm-37.87,55.28c0-7.6,2.24-14.66,6.09-20.59,1.75,6.06,5.58,14.76,13.86,21.87,14.3,12.26,17.36,8.68,24.51,15.66,4.72,4.61,8.4,12.26,10.36,16.93-5.1,2.56-10.86,4.01-16.95,4.01-20.92,0-37.87-16.96-37.87-37.87Zm69.19,21.29c-1.64-5.22-5.57-12.2-14.68-19.68-13.28-10.89-18.89-7.32-26.72-19.23-3.81-5.8-5.48-11.87-6.19-16.58,4.93-2.35,10.45-3.67,16.28-3.67,20.92,0,37.87,16.96,37.87,37.87,0,7.9-2.42,15.23-6.55,21.29Z"/>
        <path class="cls-1" d="m109.53,2.08c-30.53,0-55.28,24.75-55.28,55.28s24.75,55.28,55.28,55.28,55.28-24.75,55.28-55.28S140.06,2.08,109.53,2.08Zm-37.87,55.28c0-7.6,2.24-14.66,6.09-20.59,1.75,6.06,5.58,14.76,13.86,21.87,14.3,12.26,17.36,8.68,24.51,15.66,4.72,4.61,8.4,12.26,10.36,16.93-5.1,2.56-10.86,4.01-16.95,4.01-20.92,0-37.87-16.96-37.87-37.87Zm69.19,21.29c-1.64-5.22-5.57-12.2-14.68-19.68-13.28-10.89-18.89-7.32-26.72-19.23-3.81-5.8-5.48-11.87-6.19-16.58,4.93-2.35,10.45-3.67,16.28-3.67,20.92,0,37.87,16.96,37.87,37.87,0,7.9-2.42,15.23-6.55,21.29Z"/>
      </g>
    </g>
  </g>
</svg>