<?xml version="1.0" encoding="UTF-8"?>
<svg id="Capa_2" data-name="Capa 2" xmlns="http://www.w3.org/2000/svg" viewBox="0 0 556.85 554.82">
  <defs>
    <style>
      .cls-1 {
        fill: #fff;
      }
    </style>
  </defs>
  <g id="Capa_1-2" data-name="Capa 1">
    <g id="Grupo_30" data-name="Grupo 30">
      <path id="Trazado_94" data-name="Trazado 94" class="cls-1" d="m0,514.62c2.17-12.09,4.4-24.17,6.5-36.28,2.17-12.48,3.96-25.04,6.36-37.47,3.75-23.52,20.39-42.94,43.06-50.24,46.91-17.09,93.86-34.03,140.87-50.84,3.33-.74,5.62-3.8,5.4-7.2,1.15-9.26-2.57-18.45-9.84-24.29-19.09-17.62-27.93-41.17-32.21-66.21-1.77-13.27-2.87-26.61-3.31-39.99-.39-8.21-3.3-16.09-8.32-22.59-9.26-11.8-13.97-26.53-13.26-41.51.35-17.57-.38-35.2.7-52.71C139.67,38.21,178.33,1.56,225.53.35c42.58-.48,85.18-.47,127.78.04,16.39.19,35.95,11.65,34.36,34.75.11,1.78,1.03,3.41,2.5,4.42,20.46,10.34,32.92,31.75,31.81,54.65-.14,19.2.41,38.44-.26,57.6-.09,7.21-1.84,14.31-5.12,20.74-10.02,18.28-16.37,38.34-18.7,59.05-3.27,25.29-11.24,49.03-27.65,69.19-2.94,3.92-6.37,7.44-10.2,10.48-3.86,2.71-5.9,7.33-5.3,12,.27,14.52.11,14.49,13.52,19.32,43.56,15.7,87.07,31.56,130.69,47.1,29.02,10.34,43.17,31.53,47.05,61.28,2.67,20.45,6.53,40.75,9.9,61.11.23.87.55,1.71.94,2.52v11.96c-9.81,23.35-17.3,28.23-43.34,28.23H39.56c-2.17,0-4.35.05-6.53-.04-13.98-.58-26.21-9.57-30.93-22.74-.66-1.83-1.39-3.63-2.09-5.45v-11.96M176.19,182.13h-.03c0,9.79-.69,19.63.17,29.34.86,13.69,2.75,27.3,5.67,40.71,4.04,19.36,14.74,36.7,30.23,48.99,8.2,6.25,16.71,12.1,25.15,18.05,3.1,2.18,6.39,4.1,9.62,6.09,24.25,14.98,47.53,11.63,69.87-4.14,7.97-5.63,15.09-12.48,23.12-18.02,9.01-6.14,16.58-14.16,22.19-23.51,11.66-19.55,17.99-41.82,18.36-64.59.64-23.72.16-47.48.11-71.22.02-2.16-.24-4.31-.77-6.4-3.17-12.74-12.62-22.99-25.07-27.19-14.36-5.38-28.87-10.34-43.4-15.31-6.56-2.23-13.7-2.11-20.18.34-11.38,4.01-22.62,9.38-34.37,11.11-14.56,1.77-29.25,2.17-43.88,1.2-17.28-.73-37.02,18.05-36.84,37.03.12,12.5.02,25.01.02,37.51m-20.37,193.11c-.78-.04-1.57,0-2.35.13-31.79,11.52-63.73,22.66-95.29,34.75-14.31,5.38-24.53,18.16-26.62,33.3-4.27,23.68-7.56,47.55-12.15,71.18-2.35,12.07,4.71,21.72,18.99,21.66,69.75-.34,139.5-.15,209.26-.17,1.72,0,3.46-.17,5.16-.26l.96-1.44c-1.52-.9-2.98-1.9-4.36-3-28.08-25.67-56.14-51.36-84.18-77.07-5.48-5.03-6.01-8.29-2.69-14.85,1.54-3.01,3.07-6.01,5.12-9.95-7.62,0-14.27.12-20.92-.03-10.85-.23-14.64-6.47-9.85-16.19,6.14-12.48,12.39-24.91,18.92-38.05m244.79-.99c6.91,13.86,13.11,26.3,19.28,38.76,4.96,10.03,1.22,16.25-9.98,16.48-6.6.13-13.2.02-20.57.02,1.54,3.14,2.52,5.24,3.59,7.3,5.29,10.15,5.07,11.79-3.41,19.55-27.25,24.97-54.53,49.92-81.83,74.84-1.38,1.26-3,2.26-4.5,3.38l1.04,1.51h215.12c1.09,0,2.18.02,3.26-.06,8.59-.08,15.48-7.11,15.4-15.69-.01-1.12-.14-2.23-.39-3.32-3.77-23.41-7.6-46.81-11.48-70.2-2.21-18.33-15.04-33.61-32.71-38.97-13.49-4.7-26.86-9.75-40.29-14.62-16.97-6.14-33.96-12.27-52.52-18.97m-.55-212.44l1.64.17c.71-3.96,1.2-7.95,1.44-11.97.15-19.93.15-39.86,0-59.79-.03-3.25-.55-6.47-1.54-9.56-3.62-13.03-13.83-23.2-26.88-26.77-7.24-2.15-9.77-6.45-7.42-13.06,5.38-15.14-3.98-21.6-16.03-21.72-41.31-.42-82.63-.64-123.92.04-37.55.62-67.79,26.8-72.08,64.04-2.49,21.63-.6,43.78-.6,65.67.19,1.57.56,3.1,1.11,4.58l1.51-.27c-.35-5.21-.31-10.44.11-15.65,4.15-28.42,28.71-49.38,57.43-49,24.87.73,48.95-.86,71.86-11.84,8.39-3.79,17.92-4.2,26.61-1.15,17.97,5.36,35.64,11.7,52.92,18.99,22.11,10.01,33.82,28.07,33.83,52.9v14.38m-73.67,276.5l41.65-75.77c-6.59-2.38-12.46-4.76-18.5-6.53-2.04-.31-4.12.16-5.82,1.33-14.07,9.22-28.03,18.59-42.01,27.94-3.11,2.08-6.18,4.22-9.51,6.47l34.18,46.55m-95.84.02l34.1-46.78c-17.81-11.91-35.22-23.56-52.7-35.12-1.18-.74-2.61-.97-3.96-.66-6.31,2.07-12.53,4.42-19.12,6.79l41.69,75.76m85.06,58.68l.71.81,59.05-54.04c-3.14-6.01-6.04-11.44-8.83-16.92-4.57-9.01-.73-15.5,9.29-15.65,6.97-.1,13.96-.02,22.12-.02l-16.7-33.52-65.62,119.35m-156.63-85.82c8.3,0,15.29-.09,22.27.02,9.71.15,13.64,6.62,9.3,15.3-2.89,5.76-5.93,11.47-8.96,17.31l58.97,53.92.79-.63-65.69-119.43-16.7,33.52m119.49,114.19c4.22-7.68,8.01-14.36,11.57-21.18.46-1.36.52-2.83.17-4.22-2.6-16.6-4.85-33.28-8.1-49.76-1.96-9.96-2.05-18.87,5.51-26.63.95-1.14,1.28-2.68.88-4.11-2.98-4.58-6.36-8.9-9.93-13.76l-11.08,15.06c1.9,2.74,3.46,5.41,5.43,7.75,3.19,3.78,4.42,8.84,3.33,13.67-2.83,16.93-5.51,33.89-8.16,50.85-.58,3.71-2.18,8.03-.94,11.12,3.36,7.29,7.14,14.38,11.33,21.22m-56.93-194.16c-2.01,4.12-.33,9.09,3.77,11.14,16.55,10.67,32.87,21.7,49.16,32.8,2.27,2.07,5.73,2.1,8.03.07,16.11-11.02,32.3-21.93,48.71-32.5,4.31-2.02,6.24-7.1,4.37-11.47-37.87,30.39-75.99,30.31-114.02-.04m29.19,143.67l1.38-.33c.94-12.34,5.07-24.34,3.86-37.05-4.96,5.52-9.56,11.36-13.77,17.48-.67,1.2-.76,2.63-.25,3.9,2.77,5.41,5.83,10.68,8.78,15.99m51.3-37.25l-2.2.36c1.1,12.25,3.39,24.35,5.79,38.02,3.62-6.56,6.53-11.52,9.04-16.66.61-1.56.5-3.3-.3-4.77-3.92-5.76-8.19-11.32-12.34-16.95"/>
    </g>
  </g>
</svg>