<?xml version="1.0" encoding="UTF-8"?>
<svg id="Capa_2" data-name="Capa 2" xmlns="http://www.w3.org/2000/svg" viewBox="0 0 509.19 249.99">
  <defs>
    <style>
      .cls-1 {
        fill: #fff;
      }
    </style>
  </defs>
  <g id="Capa_1-2" data-name="Capa 1">
    <g>
      <path class="cls-1" d="m33.15,249.99H0V76.86c0-16.86,13.67-30.53,30.53-30.53h51.26v17.74h-33.06c-8.72,0-15.79,7.07-15.79,15.79v21.15h40.34v21.87h-40.26l.13,127.11Z"/>
      <path class="cls-1" d="m130.98,83.47c-28.26,0-37.45,20.26-41.28,43.91-3.83,23.66-1.15,48.09,5.74,64.43,6.89,16.34,18.17,22.47,34.85,22.47s25.96-6.72,29.7-14.3c3.74-7.57,3.74-17.87,3.74-17.87h-21.96s.89,12.77-9.57,12.77-10.28-13.15-10.79-18c-.51-4.85-1-26.51-1-26.51h46.3v-18.98s2.38-47.91-35.74-47.91Zm10.43,49.32h-20.81s-.26-8.13.38-15.11c.88-9.62,3.64-15.11,9.77-15.11s8.49,4.47,9.7,11.49.96,18.72.96,18.72Z"/>
      <path class="cls-1" d="m181.65,85.22v127.62h31.03v-100.6s2.38-3.15,14.13-2.83,16.28,3.06,16.28,3.06v-26.55s-7.09-4.02-17.49-2.04-16.4,7.09-16.4,7.09l-1.79-5.87-25.76.13Z"/>
      <path class="cls-1" d="m253.31,85.22v127.62h31.03v-100.6s2.38-3.15,14.13-2.83,16.28,3.06,16.28,3.06v-26.55s-7.09-4.02-17.49-2.04-16.4,7.09-16.4,7.09l-1.79-5.87-25.76.13Z"/>
      <path class="cls-1" d="m364.34,83.33c-14.98,0-42.72,3.8-42.72,64.75s27.06,66.54,42.72,66.54,41.36-5.96,41.36-62.3-17.7-68.99-41.36-68.99Zm9.4,80.59c0,24.32-4.46,31.3-9.96,31.3s-9.96-3.21-9.96-28.49v-31.66c0-27.7,4.46-32.36,9.96-32.36s9.96,2.74,9.96,33.89v27.32Z"/>
      <path class="cls-1" d="m421.7,45.94h31.49v142.34c0,4.49,3.64,8.13,8.13,8.13h3.7v16.85h-20.94c-12.36,0-22.38-10.02-22.38-22.38V45.94Z"/>
      <rect class="cls-1" x="477.87" y="45.94" width="31.32" height="28.77"/>
      <rect class="cls-1" x="477.87" y="85.09" width="31.32" height="128.17"/>
      <path class="cls-1" d="m126.12,73.35c-.7,1.22-10.88-15.45-14.27-26.74-3.38-11.3-4.21-17.84-3.99-18.93S130.38,2.21,181.65.16s108.56,16.1,148.14,51.06c16.77,14.81,23.36,22.45,22.61,23.85-.45.83-7.12-5.27-11.68-7.91-4.56-2.65-60.8-41.52-133.56-37.21-34.47,2.04-65.55,16.47-81.03,43.4Z"/>
    </g>
  </g>
</svg>