<?xml version="1.0" encoding="UTF-8"?>
<svg id="Capa_2" data-name="Capa 2" xmlns="http://www.w3.org/2000/svg" viewBox="0 0 625.99 550.7">
  <defs>
    <style>
      .cls-1 {
        fill: #fff;
      }
    </style>
  </defs>
  <g id="Capa_1-2" data-name="Capa 1">
    <g id="Grupo_35" data-name="Grupo 35">
      <path id="Trazado_100" data-name="Trazado 100" class="cls-1" d="m367.27,388.48v22.23c11.02-2.68,21.87-6.07,32.98-7.88,36.19-6.55,73.41-4.56,108.69,5.82,5.78,1.81,11.33,4.27,16.55,7.34,9.4,4.94,15.01,14.96,14.3,25.55-.48,21.8-.63,43.62.03,65.41,1.3,12.32-5.91,23.96-17.52,28.29-12.14,5.21-24.82,9.06-37.8,11.48-35.95,6.63-72.96,4.7-108.03-5.61-13.54-2.26-27.37-2.22-40.9.12-46.88,12.83-93.71,13.5-139.67-3.43-7.85-3.67-16.92-3.67-24.77,0-29.09,12.48-60.18,13.75-91.36,11.87-19.34-.59-38.43-4.47-56.46-11.5-4.34-1.83-8.46-4.12-12.3-6.84-7.22-4.87-11.39-13.15-11.01-21.85.16-61.38.09-122.75.09-184.12V15.81C.11,2.98,3.11,0,16,0h594.17c12.83,0,15.82,3.02,15.82,15.89v356.77c0,12.81-3.02,15.82-15.9,15.82h-242.82Zm108.3-312.66H150.5c-6.72,28.69-24.42,46.29-52.75,52.98v113.64c8.83.57,17.13.91,25.4,1.7,18.19,1.1,36.04,5.46,52.69,12.87,12.31,5.97,19.76,15.01,18.62,29.79-.66,8.6-.12,17.3-.12,25.8h281.31c6.76-28.92,24.64-46.36,52.79-52.94v-130.91c-28.75-6.85-46.14-24.47-52.87-52.94M75.65,242.33v-120.51c0-9.93,3.23-13.32,13.05-13.98,22.08-1.21,39.7-18.87,40.84-40.96.64-9.7,4.08-12.92,14.1-12.93,112.85-.01,225.69-.01,338.53,0,10.4,0,13.7,3.1,14.39,13.33,1.36,21.8,18.74,39.19,40.55,40.55,10.23.71,13.33,4,13.33,14.39.02,47.88.02,95.76,0,143.64,0,10.87-2.93,14-13.65,14.78-21.53,1.51-38.67,18.62-40.22,40.15-.79,10.79-3.89,13.69-14.71,13.7-39.56.02-79.13.02-118.69,0h-6.95c11.26,8.63,11.4,20.45,10.79,32h236.96V22.09H21.9v231.58l53.74-11.35m-52.41,38.22c20.13,21.49,127.58,21.54,147.95.04-19.86-21.4-127.35-21.63-147.95-.04m171.54,75.07c3.75,2.39,7.75,4.36,11.94,5.85,14.49,3.79,29.21,6.65,44.07,8.56,27.75,3.28,55.89.37,82.39-8.52,4.04-1.78,7.96-3.83,11.73-6.14-24.08-22.15-127.32-21.78-150.12.25m322.87,80.62c-3.74-2.41-7.74-4.37-11.93-5.87-14.71-3.81-29.65-6.68-44.73-8.6-27.54-3.2-55.44-.27-81.72,8.56-4.05,1.78-7.97,3.83-11.74,6.14,23.72,22.02,127.08,21.91,150.12-.22m-322.86,57.65c-.66,21.08-4.05,19.48,17.58,27.5,2.33.8,4.71,1.46,7.13,1.96,26.32,6.09,53.54,7.27,80.3,3.48,13.19-2.38,26.18-5.77,38.85-10.14,3.04-1.13,5.41-3.57,6.45-6.64.61-5.34.71-10.73.3-16.09-48.93,16.01-101.7,15.99-150.61-.07m-22.36,1.45c-48.86,16-101.55,15.92-150.36-.22-.43,19.38-4.71,19.17,16.58,25.58,38.14,11.34,78.75,11.43,116.94.27,17.25-4.8,18.09-6.87,16.84-25.62m-.31-113.19c-48.73,15.86-101.25,15.76-149.92-.27-1.01,15.37-2.69,13.81,10.73,17.98,15.62,4.78,31.69,7.91,47.96,9.34,27.4,2.48,54.87,1.14,80.92-8.91,12.31-4.75,11.86-2.78,10.31-18.13m172.96,36.31c-48.83,15.99-101.49,15.95-150.3-.1-.77,15.22-2.88,13.68,10.9,18,15.4,4.74,31.26,7.85,47.32,9.26,27.08,3.15,54.52.3,80.38-8.34,12.76-4.57,12.68-4.8,11.72-18.81m-322.94,1.11c-.78,15.27-2.48,12.32,10.79,18.48,1.65.69,3.35,1.26,5.08,1.73,23.12,6.67,47.22,9.31,71.23,7.81,17.98-.15,35.81-3.34,52.74-9.42,11.41-4.45,12.23-6.16,10-18.27-48.71,15.89-101.22,15.78-149.86-.33m322.84,36.69c-48.71,15.97-101.26,15.91-149.94-.16-2.02,12.52-1.83,14.6,9.7,17.74,15.68,4.53,31.72,7.71,47.94,9.5,27.39,2.59,54.86,1.34,80.99-8.54,14.25-5.38,12.09-3.78,11.31-18.53m-322.81.98c-.89,15.45-2.81,13.92,10.79,18.13,15.62,4.78,31.69,7.9,47.96,9.33,27.31,3.17,54.99.17,80.99-8.77,11.52-4.24,12.17-5.92,10.19-18.26-65.96,15.8-90.55,15.76-149.92-.43m150.27-113c-48.84,15.97-101.5,15.93-150.31-.13-.86,15.25-2.85,13.75,10.84,17.99,15.62,4.77,31.69,7.9,47.96,9.32,26.94,2.44,53.96,1.18,79.66-8.47,15.6-5.86,12.06-4.32,11.84-18.71m195.01,118.53c-1.33,13.41-1.36,14.94,10.89,18.2,15.71,4.41,31.77,7.48,48.01,9.17,27.31,3.15,54.97.13,80.95-8.84,11.47-4.24,12.2-6.08,10.03-18.27-62.47,15.79-97.28,15.77-149.87-.26m-22.41-81.94c-48.86,15.79-101.46,15.81-150.33.04-1.12,13.31-1.27,14.6,11.1,17.92,15.5,4.37,31.34,7.4,47.35,9.07,27.08,3.13,54.51.26,80.35-8.42,12.6-4.53,12.64-4.96,11.52-18.62M22.1,306.6c-1.23,13.18-.98,13.61,10.93,18.21,1.67.64,3.39,1.14,5.1,1.68,23.54,6.81,48.1,9.43,72.55,7.74,17.76-.21,35.35-3.47,52-9.64,10.82-4.38,11.59-6.07,9.31-17.83-48.75,15.66-101.18,15.61-149.89-.16m495.32,194.27c-48.73,15.9-101.27,15.8-149.95-.27-1.3,12.82-.57,14.32,11.28,18.56,26.47,9.01,54.63,11.96,82.39,8.63,15.99-1.85,31.78-5.12,47.19-9.75,10.46-2.96,10.9-5.69,9.07-17.18"/>
      <path id="Trazado_101" data-name="Trazado 101" class="cls-1" d="m226.03,193.87c.86-46.3,32.34-84.61,76.93-90.46,34.1-4.46,60.82,9.79,80.26,37.67,26.85,39.9,19.7,93.57-16.67,125.05-48.85,41.08-122.21,14.89-137.02-49.03-1.76-7.6-2.36-15.48-3.5-23.22m153.01.06c-1.6-9.23-3.85-18.33-6.73-27.24-9.29-23.41-26.3-38.58-51.71-41.97-23.31-3.11-42.31,6.04-56.8,24.15-20.89,26.88-20.71,64.54.43,91.22,14.85,18.13,34.1,27.15,57.68,23.39,32.84-5.24,55.88-34.3,57.14-69.55"/>
      <path id="Trazado_102" data-name="Trazado 102" class="cls-1" d="m167.37,183.45c8.54,0,17.08-.1,25.62.03,7.41.11,12.09,4.4,12.09,10.75-.03,6.01-4.93,10.85-10.94,10.82-.38,0-.77-.02-1.15-.07-17.08.11-34.16.11-51.24,0-5.95.69-11.33-3.58-12.02-9.53-.05-.41-.07-.82-.07-1.23,0-6.35,4.68-10.63,12.09-10.75,8.53-.13,17.08-.03,25.62-.03"/>
      <path id="Trazado_103" data-name="Trazado 103" class="cls-1" d="m459.4,183.45c8.31,0,16.63-.1,24.94.03,7.41.12,12.09,4.41,12.09,10.75-.03,6.01-4.93,10.85-10.94,10.82-.38,0-.77-.02-1.15-.07-17.08.11-34.16.11-51.24,0-5.95.69-11.33-3.57-12.02-9.52-.05-.41-.07-.82-.07-1.23,0-6.35,4.68-10.64,12.09-10.75,8.76-.13,17.53-.03,26.29-.03"/>
      <path id="Trazado_104" data-name="Trazado 104" class="cls-1" d="m289.55,212.35c2.75,1.96,5.2,4.32,7.25,7,5.9,9.27,18.18,12.05,27.5,6.22,6.38-4.32,6.52-9.61-.09-13.58-5.76-3.45-11.93-6.22-17.89-9.35-5.18-2.71-10.49-5.18-15.41-8.28-21.04-13.32-20.72-37.87.6-50.75,5.13-3.1,10.62-4.75,13.81-11.31,3.37-6.91,13.52-4.77,17.57,2.34,1.59,2.69,3.9,4.86,6.68,6.28,7.71,3.3,14.07,9.11,18.07,16.48,3.07,5.11,1.42,11.74-3.69,14.81-.16.09-.31.18-.47.27-5.12,2.81-11.54.93-14.34-4.18-.04-.07-.08-.14-.12-.22-5.57-8.71-16.99-11.53-25.98-6.42-7.77,4.14-8.14,10.06-.63,14.51,5.78,3.43,11.91,6.26,17.89,9.36,4.38,2.28,8.82,4.46,13.12,6.86,10.43,5.82,18.05,13.77,17.27,26.64-.82,13.19-8.59,21.85-20.06,27.36-3.79,1.13-6.91,3.84-8.56,7.43-2.8,4.99-9.12,6.76-14.11,3.96-1.65-.93-3.01-2.28-3.94-3.93-1.62-3.6-4.72-6.32-8.5-7.46-8.47-3.41-15.12-10.21-18.36-18.74-2.93-7.86,2.06-15.39,12.37-15.29"/>
    </g>
  </g>
</svg>