<?xml version="1.0" encoding="UTF-8"?>
<svg id="Capa_2" data-name="Capa 2" xmlns="http://www.w3.org/2000/svg" viewBox="0 0 876.97 84.69">
  <defs>
    <style>
      .cls-1 {
        fill: #fff;
      }
    </style>
  </defs>
  <g id="Capa_1-2" data-name="Capa 1">
    <g>
      <path class="cls-1" d="m128.28,22.24V7.97h-55.96S0,5.74,0,48.12s75.82,36.37,75.82,36.37h51.2v-47.7h-62.88v12.31h34.34v22.38h-24.62s-43.37,1.86-43.37-25.3c0-24.36,44.48-24.5,44.48-24.5l53.3.56Z"/>
      <path class="cls-1" d="m205.78,82.95h31.48V26.16h-50.36s-51.06-.7-51.06,30.08,59.87,26.72,66.17,26.72v-13.85s-35.39.98-35.39-13.01,18.19-15.67,39.31-15.67l-.14,42.53Z"/>
      <path class="cls-1" d="m430.72,82.95h31.48V26.16h-50.36s-51.06-.7-51.06,30.08,59.87,26.72,66.17,26.72v-13.85s-35.39.98-35.39-13.01,18.19-15.67,39.31-15.67l-.14,42.53Z"/>
      <path class="cls-1" d="m250.4,6.16v76.98h62.53s38.47-4.2,38.47-28.49-36.37-27.37-47.14-27.37h-17.35v14.83h13.99s19.72.28,19.72,13.57-19.72,13.99-19.72,13.99h-21.96V6.16h-28.54Z"/>
      <path class="cls-1" d="m506.12,82.26h-31.89v-34.41c0-11.98,9.71-21.68,21.68-21.68h60.85v15.95h-47.35c-1.82,0-3.29,1.47-3.29,3.29v36.86Z"/>
      <path class="cls-1" d="m598.17,82.26h-31.89v-34.41c0-11.98,9.71-21.68,21.68-21.68h60.85v15.95h-47.35c-1.82,0-3.29,1.47-3.29,3.29v36.86Z"/>
      <path class="cls-1" d="m705.32,22.52c-26.02,0-50.92,10.21-50.92,30.92s22.1,30.92,52.04,30.92,52.74-12.87,52.74-30.15-22.8-31.68-53.86-31.68Zm1.32,44.62c-12.83,0-22.3-4.53-22.3-13.71s10.67-13.71,21.82-13.71c13.31,0,23.08,6.39,23.08,14.05s-9.77,13.37-22.6,13.37Z"/>
      <polygon class="cls-1" points="709.24 13.99 734.56 13.99 743.65 0 718.19 0 709.24 13.99"/>
      <path class="cls-1" d="m771.63,82.81h31.89v-37.56c0-1.82,1.47-3.29,3.29-3.29h35.25c1.82,0,3.29,1.47,3.29,3.29v37.56h31.62v-32.31c0-14.29-11.59-25.88-25.88-25.88h-53.58c-14.29,0-25.88,11.59-25.88,25.88v32.31Z"/>
    </g>
  </g>
</svg>