<?xml version="1.0" encoding="UTF-8"?>
<svg id="Capa_2" data-name="Capa 2" xmlns="http://www.w3.org/2000/svg" xmlns:xlink="http://www.w3.org/1999/xlink" viewBox="0 0 537.36 144.39">
  <defs>
    <style>
      .cls-1 {
        fill: url(#Degradado_sin_nombre_4-2);
      }

      .cls-2 {
        fill: url(#Degradado_sin_nombre_4);
      }
    </style>
    <linearGradient id="Degradado_sin_nombre_4" data-name="Degradado sin nombre 4" x1="69" y1="20.3" x2="69" y2="127.56" gradientUnits="userSpaceOnUse">
      <stop offset="0" stop-color="#b10022"/>
      <stop offset="1" stop-color="#0671b0"/>
    </linearGradient>
    <linearGradient id="Degradado_sin_nombre_4-2" data-name="Degradado sin nombre 4" x1="69.08" y1="46" x2="69.08" y2="98.84" xlink:href="#Degradado_sin_nombre_4"/>
  </defs>
  <g id="Capa_1-2" data-name="Capa 1">
    <g>
      <path class="cls-2" d="m137.67,62.27c-3.4,34.65-32.62,61.73-68.17,61.73h-.28c-.5,0-.99-.01-1.49-.02-1.08-.03-2.15-.08-3.21-.16-28.29-2.28-50.52-25.95-50.52-54.82,0-23.44,14.66-43.45,35.31-51.36,6.11-2.35,12.75-3.64,19.69-3.64,30.31,0,54.89,24.51,55,54.8,2.57-5.74,4-12.1,4-18.8,0-14.69-6.88-27.77-17.6-36.19-.13-.11-.27-.21-.41-.31-1.18-.91-2.4-1.76-3.67-2.55-.15-.1-.31-.2-.47-.29C95.19,3.9,82.56,0,69,0,34.93,0,6.64,24.68,1.02,57.14c-.67,3.85-1.02,7.82-1.02,11.86,0,38.11,30.89,69,69,69s69-30.89,69-69c0-2.27-.11-4.51-.33-6.73Z"/>
      <path class="cls-1" d="m44.02,82.87v15.41s9.79,6.65,23.28,6.65,28.04-4.89,28.04-20.47-11.43-18.77-19.02-22.09-16.85-5.06-16.68-10.98,14-8.64,32.89,1.74v-14.3s-10.09-5.64-24.7-5.64-26.63,8.28-24.83,23.17c1.66,13.7,17.59,17.98,27.26,21.83,6.83,2.72,8.23,3.91,7.64,8.68s-9.19,4.71-11.79,4.68c-9.83-.13-22.09-8.7-22.09-8.7Z"/>
      <g>
        <path d="m378.08,79.65v11.83s7.51,5.1,17.86,5.1,21.52-3.76,21.52-15.71-8.77-14.4-14.6-16.95-12.93-3.89-12.8-8.43,10.74-6.63,25.24,1.34v-10.97s-7.74-4.33-18.96-4.33-20.44,6.35-19.06,17.78c1.27,10.52,13.5,13.8,20.92,16.75,5.24,2.09,6.32,3,5.86,6.66s-7.05,3.62-9.05,3.59c-7.54-.1-16.95-6.68-16.95-6.68Z"/>
        <rect x="281.6" y="42.43" width="13.38" height="53.28"/>
        <polygon points="245.96 85.45 245.96 42.43 232.57 42.43 232.57 95.7 241.98 95.7 245.96 95.7 269.02 95.7 269.02 85.45 245.96 85.45"/>
        <polygon points="353.83 42.43 352.06 44.62 336.52 63.85 320.85 44.29 319.36 42.43 307.47 42.43 307.47 95.7 320.85 95.7 320.85 62.89 336.6 82.14 352.06 63.12 352.06 95.7 365.45 95.7 365.45 42.43 353.83 42.43"/>
        <path d="m464.87,42.34v31.96c0,6.23-5.05,11.28-11.28,11.28h-1.19c-6.23,0-11.28-5.05-11.28-11.28v-31.96h-13.53v32.1c0,12.23,9.91,22.14,22.14,22.14h6.52c12.23,0,22.14-9.91,22.14-22.14v-32.1h-13.53Z"/>
        <path d="m528.04,76.13c-1.2-2.58-3.43-4.54-6.14-5.41l-.62-.02c5.8-1.25,10.16-6.41,10.16-12.59v-1.48c0-7.85-6.36-14.21-14.21-14.21h-26.38v53.28h13.38v-21.7l3.05.06c3.17.06,6.02,1.96,7.3,4.86l7.41,16.78h15.19l-9.13-19.57Zm-10.11-18.04c0,3.45-2.79,6.24-6.24,6.24h-7.47v-12.61h7.47c3.45,0,6.24,2.79,6.24,6.24v.13Z"/>
        <path d="m220.15,79.13c-4.82,3.48-11.53,6.22-18.03,6.52-9.9.44-17.22-5.61-17.22-16.58,0-10.39,7.36-16.58,17.22-16.58,6.53,0,13.22,2.29,18.03,5.82v-12.32c-4.87-2.87-11.45-4.54-20.09-4.54-16.44,0-28.69,11.49-28.69,27.62s12.19,27.62,28.69,27.62c8.3,0,15.01-1.94,20.09-5.23v-12.33Z"/>
      </g>
      <g>
        <path d="m198.53,113.57v1.98h-9.62v22.36h-2.63v-22.36h-9.58v-1.98h21.83Z"/>
        <path d="m216.71,137.91v-3.17h-.08c-.71,1.18-1.73,2.09-3.07,2.71-1.34.62-2.83.94-4.47.94-1.38,0-2.56-.15-3.54-.46-.97-.31-1.76-.74-2.37-1.31-.61-.57-1.05-1.26-1.33-2.08-.28-.82-.42-1.75-.42-2.79v-11.42h2.67v11.45c.06,1.59.51,2.79,1.38,3.61.86.82,2.35,1.23,4.47,1.23,1.16,0,2.14-.2,2.96-.6.82-.4,1.5-.93,2.03-1.58.54-.66.93-1.41,1.19-2.27.25-.85.38-1.72.38-2.61v-9.24h2.67v17.59h-2.46Z"/>
        <path d="m252.71,122.74c-.98-.75-2.35-1.12-4.11-1.12-1.26,0-2.36.22-3.31.65-.95.43-1.74,1-2.37,1.7-.63.7-1.1,1.51-1.42,2.4-.32.9-.48,1.81-.48,2.74s.16,1.85.48,2.74c.32.9.8,1.7,1.42,2.4.63.7,1.42,1.27,2.37,1.7.95.43,2.05.65,3.31.65.81,0,1.58-.12,2.3-.37.73-.25,1.37-.6,1.93-1.04.56-.44,1.02-.97,1.38-1.58.36-.61.59-1.28.67-2.01h2.64c-.36,2.14-1.33,3.8-2.89,4.99-1.56,1.19-3.58,1.79-6.03,1.79-1.65,0-3.11-.24-4.38-.73-1.27-.49-2.34-1.15-3.2-1.99-.87-.84-1.52-1.82-1.97-2.95-.45-1.12-.67-2.32-.67-3.6s.22-2.47.67-3.6c.45-1.12,1.1-2.11,1.97-2.95.87-.84,1.93-1.51,3.2-2.01,1.27-.5,2.73-.75,4.38-.75,2.32,0,4.28.5,5.89,1.5,1.61,1,2.56,2.51,2.87,4.53h-2.64c-.36-1.32-1.03-2.35-2.01-3.1Z"/>
        <path d="m266.29,113.57v24.34h-2.64v-24.34h2.64Z"/>
        <path d="m276.04,113.57v3.44h-2.62v-3.44h2.62Zm0,6.75v17.59h-2.62v-17.59h2.62Z"/>
        <path d="m285.8,120.32v2.97h.13c.71-1.09,1.64-1.94,2.8-2.56,1.15-.61,2.63-.92,4.42-.92,1.45,0,2.77.28,3.95.85,1.18.57,1.97,1.43,2.37,2.59.65-1.16,1.62-2.02,2.9-2.59,1.28-.57,2.65-.85,4.1-.85,4.87,0,7.3,2.06,7.3,6.17v11.93h-2.69v-11.83c0-1.45-.38-2.56-1.15-3.32-.77-.76-2.12-1.14-4.06-1.14-1.17,0-2.13.18-2.9.53-.77.35-1.38.82-1.84,1.41-.46.59-.78,1.27-.96,2.03-.19.76-.28,1.55-.28,2.37v9.95h-2.69v-11.93c0-.59-.08-1.15-.23-1.69-.16-.53-.41-1-.77-1.4-.36-.4-.83-.71-1.43-.94-.6-.23-1.32-.34-2.18-.34-1.14,0-2.13.16-2.97.49-.84.33-1.52.78-2.05,1.36s-.92,1.26-1.17,2.05c-.26.78-.38,1.64-.38,2.57v9.82h-2.69v-17.59h2.48Z"/>
        <path d="m321.71,123.05c.45-.75,1.05-1.36,1.82-1.84.77-.48,1.67-.83,2.7-1.06,1.03-.23,2.18-.34,3.44-.34.95,0,1.9.07,2.85.22.95.15,1.8.43,2.56.84.75.41,1.37.98,1.84,1.72.47.74.71,1.7.71,2.88v9.34c0,.86.52,1.3,1.55,1.3.31,0,.59-.05.84-.14v1.81c-.31.05-.58.08-.82.1-.24.02-.54.03-.9.03-.67,0-1.21-.07-1.61-.22-.41-.15-.72-.36-.94-.63-.22-.27-.37-.6-.44-.97-.07-.38-.1-.79-.1-1.24h-.08c-.48.57-.96,1.07-1.45,1.52-.49.44-1.03.81-1.63,1.11-.6.3-1.28.52-2.05.68-.77.16-1.68.24-2.74.24-1.01,0-1.95-.1-2.83-.29s-1.65-.5-2.3-.92c-.66-.42-1.17-.95-1.55-1.6-.38-.65-.57-1.41-.57-2.3,0-1.23.34-2.19,1.01-2.88.67-.69,1.56-1.22,2.66-1.58,1.1-.36,2.35-.62,3.73-.77,1.38-.15,2.79-.29,4.21-.43.56-.05,1.05-.1,1.47-.17.42-.07.77-.19,1.05-.36.28-.17.5-.4.65-.7.15-.3.23-.68.23-1.16,0-.73-.15-1.32-.44-1.79-.29-.47-.7-.84-1.21-1.11-.52-.27-1.12-.46-1.8-.56-.69-.1-1.42-.15-2.2-.15-1.68,0-3.04.32-4.11.97-1.06.65-1.62,1.69-1.68,3.12h-2.64c.08-1.02.35-1.91.8-2.66Zm13.2,5.25c-.17.25-.49.43-.96.55-.48.11-.89.19-1.26.24-1.12.16-2.27.3-3.46.43-1.19.13-2.27.31-3.25.56-.98.25-1.78.61-2.41,1.07-.63.47-.94,1.13-.94,1.99,0,.55.13,1.03.4,1.45.27.42.62.78,1.07,1.09.45.31.96.54,1.55.7.59.16,1.19.24,1.8.24,1.01,0,1.97-.12,2.89-.37s1.72-.61,2.41-1.09c.68-.48,1.23-1.06,1.63-1.74s.61-1.45.61-2.32v-2.79h-.08Z"/>
        <path d="m360.91,120.32v3.34h.08c.61-1.23,1.6-2.18,2.96-2.85,1.37-.67,2.92-1.01,4.66-1.01,1.63,0,3.05.25,4.25.75s2.2,1.18,3.01,2.03c.8.85,1.39,1.84,1.78,2.97.39,1.12.58,2.31.58,3.56s-.19,2.44-.58,3.56c-.39,1.12-.98,2.11-1.78,2.97-.8.85-1.8,1.52-3.01,2.01-1.2.49-2.62.73-4.25.73-.77,0-1.55-.08-2.32-.24-.77-.16-1.49-.4-2.16-.72-.66-.32-1.25-.72-1.76-1.19-.51-.48-.91-1.03-1.18-1.67h-.08v9.82h-2.61v-24.07h2.4Zm14.32,6.08c-.26-.9-.68-1.7-1.24-2.4-.57-.7-1.29-1.28-2.18-1.72-.88-.44-1.95-.66-3.19-.66-1.44,0-2.64.2-3.61.61-.97.41-1.74.95-2.32,1.64-.58.68-.99,1.48-1.22,2.39-.23.91-.35,1.86-.35,2.86,0,.91.13,1.81.39,2.71.26.9.69,1.7,1.28,2.4.59.7,1.37,1.28,2.32,1.72.95.44,2.12.66,3.5.66,1.24,0,2.31-.22,3.19-.66s1.61-1.02,2.18-1.72c.57-.7.98-1.5,1.24-2.4.26-.9.39-1.8.39-2.71s-.13-1.81-.39-2.71Z"/>
        <path d="m387.25,132.1c.27.83.71,1.57,1.32,2.23.6.66,1.37,1.21,2.29,1.64.92.43,2.03.65,3.32.65,1.98,0,3.54-.41,4.66-1.23,1.12-.82,1.9-1.91,2.33-3.27h2.72c-.58,2-1.63,3.55-3.17,4.64-1.54,1.09-3.72,1.64-6.54,1.64-1.75,0-3.27-.24-4.55-.73-1.28-.49-2.32-1.16-3.13-2.01-.81-.85-1.4-1.84-1.79-2.97-.39-1.12-.58-2.31-.58-3.56,0-1.16.19-2.29.58-3.41.39-1.11.99-2.11,1.79-2.98.81-.87,1.85-1.58,3.13-2.11,1.28-.53,2.8-.8,4.55-.8s3.31.28,4.57.85c1.27.57,2.29,1.31,3.09,2.23.79.92,1.36,1.98,1.7,3.17.35,1.19.49,2.4.43,3.63h-17.13c0,.77.14,1.57.41,2.4Zm13.46-6.56c-.33-.75-.8-1.41-1.4-1.99s-1.34-1.04-2.2-1.4c-.86-.35-1.84-.53-2.93-.53s-2.11.18-2.98.53c-.86.35-1.6.82-2.2,1.4-.6.58-1.09,1.25-1.45,2.01s-.6,1.54-.71,2.33h14.41c-.03-.82-.21-1.6-.54-2.35Z"/>
        <path d="m412.96,120.32v4.12h.08c.68-1.43,1.73-2.53,3.15-3.31,1.42-.77,3.13-1.13,5.1-1.06v2.15c-1.21-.05-2.31.09-3.3.39-.99.31-1.84.74-2.56,1.31-.72.57-1.28,1.24-1.67,2.03-.4.78-.59,1.64-.59,2.57v9.37h-2.67v-17.59h2.46Z"/>
        <path d="m430.91,122.13v15.78h-2.67v-15.78h-3.73v-1.81h3.73v-1.6c0-.75.07-1.44.21-2.08.14-.64.41-1.18.8-1.64.4-.45.94-.81,1.63-1.06.69-.25,1.57-.38,2.65-.38.4,0,.76.01,1.1.03.34.02.72.06,1.14.1v1.84c-.37-.05-.71-.09-1.02-.12-.31-.03-.62-.05-.93-.05-.73,0-1.3.09-1.69.27-.4.18-.68.43-.87.73-.18.31-.29.66-.32,1.07-.03.41-.04.85-.04,1.33v1.53h4.32v1.81h-4.32Z"/>
        <path d="m443.52,132.1c.27.83.7,1.57,1.29,2.23.59.66,1.34,1.21,2.24,1.64.9.43,1.99.65,3.26.65,1.95,0,3.47-.41,4.57-1.23,1.1-.82,1.86-1.91,2.29-3.27h2.67c-.56,2-1.6,3.55-3.11,4.64-1.51,1.09-3.65,1.64-6.41,1.64-1.72,0-3.21-.24-4.47-.73-1.26-.49-2.28-1.16-3.07-2.01-.79-.85-1.38-1.84-1.76-2.97-.38-1.12-.57-2.31-.57-3.56,0-1.16.19-2.29.57-3.41.38-1.11.97-2.11,1.76-2.98.79-.87,1.81-1.58,3.07-2.11,1.26-.53,2.75-.8,4.47-.8s3.25.28,4.49.85c1.24.57,2.25,1.31,3.03,2.23.78.92,1.33,1.98,1.67,3.17.34,1.19.48,2.4.42,3.63h-16.81c0,.77.13,1.57.4,2.4Zm13.21-6.56c-.32-.75-.78-1.41-1.38-1.99s-1.31-1.04-2.16-1.4c-.85-.35-1.81-.53-2.88-.53s-2.08.18-2.92.53c-.85.35-1.57.82-2.16,1.4-.59.58-1.07,1.25-1.42,2.01s-.59,1.54-.7,2.33h14.14c-.03-.82-.21-1.6-.53-2.35Z"/>
        <path d="m479.95,122.74c-.99-.75-2.37-1.12-4.15-1.12-1.27,0-2.39.22-3.35.65-.96.43-1.76,1-2.39,1.7-.63.7-1.12,1.51-1.44,2.4-.32.9-.49,1.81-.49,2.74s.16,1.85.49,2.74c.32.9.8,1.7,1.44,2.4.64.7,1.43,1.27,2.39,1.7.96.43,2.07.65,3.35.65.82,0,1.59-.12,2.33-.37.73-.25,1.38-.6,1.95-1.04.56-.44,1.03-.97,1.4-1.58.37-.61.59-1.28.68-2.01h2.67c-.37,2.14-1.34,3.8-2.92,4.99-1.58,1.19-3.61,1.79-6.1,1.79-1.67,0-3.14-.24-4.42-.73-1.29-.49-2.36-1.15-3.24-1.99-.88-.84-1.54-1.82-1.99-2.95-.45-1.12-.68-2.32-.68-3.6s.23-2.47.68-3.6c.45-1.12,1.11-2.11,1.99-2.95.87-.84,1.95-1.51,3.24-2.01,1.28-.5,2.76-.75,4.42-.75,2.34,0,4.33.5,5.95,1.5,1.62,1,2.59,2.51,2.9,4.53h-2.67c-.37-1.32-1.04-2.35-2.03-3.1Z"/>
        <path d="m500.28,120.32v1.81h-4.62v11.86c0,.7.12,1.26.37,1.65.25.4.87.62,1.87.66.79,0,1.58-.03,2.37-.1v1.81c-.41,0-.82.01-1.23.03-.41.02-.82.03-1.23.03-1.85,0-3.14-.28-3.87-.84-.73-.56-1.09-1.58-1.06-3.08v-12.03h-3.96v-1.81h3.96v-5.28h2.77v5.28h4.62Z"/>
        <path d="m520.59,120.56c1.28.5,2.36,1.17,3.24,2.01.88.84,1.54,1.82,1.99,2.95.45,1.12.68,2.32.68,3.6s-.23,2.47-.68,3.6c-.45,1.12-1.12,2.11-1.99,2.95s-1.96,1.51-3.24,1.99c-1.29.49-2.76.73-4.42.73s-3.14-.24-4.42-.73c-1.29-.49-2.36-1.15-3.24-1.99-.88-.84-1.54-1.82-1.99-2.95-.45-1.12-.68-2.32-.68-3.6s.23-2.47.68-3.6c.45-1.12,1.11-2.11,1.99-2.95.87-.84,1.95-1.51,3.24-2.01,1.28-.5,2.76-.75,4.42-.75s3.14.25,4.42.75Zm-7.77,1.7c-.96.43-1.76,1-2.39,1.7-.63.7-1.12,1.51-1.44,2.4-.32.9-.49,1.81-.49,2.74s.16,1.85.49,2.74c.32.9.8,1.7,1.44,2.4.64.7,1.43,1.27,2.39,1.7.96.43,2.07.65,3.35.65s2.38-.22,3.34-.65c.96-.43,1.76-1,2.39-1.7.64-.7,1.11-1.5,1.44-2.4.32-.9.49-1.81.49-2.74s-.16-1.85-.49-2.74c-.32-.9-.8-1.7-1.44-2.4-.64-.7-1.43-1.27-2.39-1.7-.96-.43-2.07-.65-3.34-.65s-2.39.22-3.35.65Z"/>
        <path d="m533.8,134.3h3.56v3.61h-3.56v-3.61Z"/>
      </g>
    </g>
  </g>
</svg>