<?xml version="1.0" encoding="UTF-8"?>
<svg id="Capa_2" data-name="Capa 2" xmlns="http://www.w3.org/2000/svg" xmlns:xlink="http://www.w3.org/1999/xlink" viewBox="0 0 202.86 185.58">
  <defs>
    <style>
      .cls-1 {
        fill: url(#Degradado_sin_nombre_4-2);
      }

      .cls-2 {
        fill: url(#Degradado_sin_nombre_4);
      }
    </style>
    <linearGradient id="Degradado_sin_nombre_4" data-name="Degradado sin nombre 4" x1="101.55" y1="21.11" x2="101.55" y2="88.69" gradientUnits="userSpaceOnUse">
      <stop offset="0" stop-color="#b10022"/>
      <stop offset="1" stop-color="#0671b0"/>
    </linearGradient>
    <linearGradient id="Degradado_sin_nombre_4-2" data-name="Degradado sin nombre 4" x1="101.61" y1="28.6" x2="101.61" y2="71.19" xlink:href="#Degradado_sin_nombre_4"/>
  </defs>
  <g id="Capa_1-2" data-name="Capa 1">
    <g>
      <g>
        <path d="m114.4,147.58v6.55s4.16,2.82,9.89,2.82,11.91-2.08,11.91-8.69-4.85-7.97-8.08-9.38c-3.23-1.41-7.16-2.15-7.08-4.66s5.95-3.67,13.97.74v-6.07s-4.28-2.39-10.49-2.39-11.31,3.51-10.55,9.84c.7,5.82,7.47,7.63,11.58,9.27,2.9,1.16,3.5,1.66,3.24,3.69s-3.9,2-5.01,1.99c-4.17-.05-9.38-3.7-9.38-3.7Z"/>
        <rect x="61" y="126.98" width="7.41" height="29.48"/>
        <polygon points="41.28 150.78 41.28 126.98 33.87 126.98 33.87 156.46 39.08 156.46 41.28 156.46 54.04 156.46 54.04 150.78 41.28 150.78"/>
        <polygon points="100.98 126.98 100 128.19 91.4 138.83 82.73 128.01 81.9 126.98 75.32 126.98 75.32 156.46 82.73 156.46 82.73 138.3 91.44 148.95 100 138.43 100 156.46 107.41 156.46 107.41 126.98 100.98 126.98"/>
        <path d="m162.43,126.93v17.68c0,3.45-2.79,6.24-6.24,6.24h-.66c-3.45,0-6.24-2.79-6.24-6.24v-17.68h-7.49v17.76c0,6.77,5.49,12.25,12.25,12.25h3.61c6.77,0,12.25-5.49,12.25-12.25v-17.76h-7.49Z"/>
        <path d="m197.38,145.63c-.67-1.43-1.9-2.51-3.4-2.99h-.35c3.21-.7,5.62-3.56,5.62-6.98v-.82c0-4.34-3.52-7.87-7.87-7.87h-14.6v29.48h7.41v-12.01l1.69.03c1.76.03,3.33,1.08,4.04,2.69l4.1,9.29h8.41l-5.05-10.83Zm-5.6-9.99c0,1.91-1.55,3.45-3.45,3.45h-4.14v-6.98h4.14c1.91,0,3.45,1.55,3.45,3.45v.07Z"/>
        <path d="m27,147.29c-2.67,1.93-6.38,3.44-9.98,3.61-5.48.25-9.53-3.1-9.53-9.17,0-5.75,4.07-9.17,9.53-9.17,3.61,0,7.32,1.26,9.98,3.22v-6.82c-2.7-1.59-6.34-2.51-11.12-2.51-9.1,0-15.88,6.36-15.88,15.29s6.75,15.29,15.88,15.29c4.59,0,8.31-1.08,11.12-2.9v-6.82Z"/>
      </g>
      <g>
        <path d="m14.26,168.42v1.1h-5.36v12.45h-1.46v-12.45H2.11v-1.1h12.15Z"/>
        <path d="m24.38,181.97v-1.76h-.05c-.39.66-.96,1.16-1.71,1.51-.75.35-1.58.52-2.49.52-.77,0-1.43-.09-1.97-.26-.54-.17-.98-.41-1.32-.73-.34-.32-.59-.7-.74-1.16-.16-.46-.24-.97-.24-1.56v-6.36h1.49v6.38c.03.89.29,1.56.77,2.01.48.46,1.31.68,2.49.68.64,0,1.19-.11,1.65-.33.46-.22.83-.52,1.13-.88.3-.37.52-.79.66-1.26.14-.47.21-.96.21-1.45v-5.14h1.48v9.79h-1.37Z"/>
        <path d="m44.42,173.53c-.54-.42-1.31-.63-2.29-.63-.7,0-1.31.12-1.84.36-.53.24-.97.56-1.32.95-.35.39-.61.84-.79,1.34-.18.5-.27,1.01-.27,1.53s.09,1.03.27,1.53c.18.5.44.95.79,1.34.35.39.79.71,1.32.95.53.24,1.14.36,1.84.36.45,0,.88-.07,1.28-.21.4-.14.76-.33,1.07-.58.31-.25.57-.54.77-.88.2-.34.33-.71.37-1.12h1.47c-.2,1.19-.74,2.12-1.61,2.78-.87.66-1.99,1-3.36,1-.92,0-1.73-.14-2.44-.41-.71-.27-1.3-.64-1.78-1.11-.48-.47-.85-1.02-1.1-1.64-.25-.63-.37-1.29-.37-2s.12-1.38.37-2c.25-.63.61-1.17,1.1-1.64.48-.47,1.08-.84,1.78-1.12.71-.28,1.52-.42,2.44-.42,1.29,0,2.38.28,3.28.83.89.56,1.43,1.4,1.6,2.52h-1.47c-.2-.73-.58-1.31-1.12-1.73Z"/>
        <path d="m51.98,168.42v13.55h-1.47v-13.55h1.47Z"/>
        <path d="m57.41,168.42v1.92h-1.46v-1.92h1.46Zm0,3.76v9.79h-1.46v-9.79h1.46Z"/>
        <path d="m62.83,172.18v1.65h.07c.4-.61.91-1.08,1.56-1.42.64-.34,1.46-.51,2.46-.51.81,0,1.54.16,2.2.47.66.32,1.1.8,1.32,1.44.36-.65.9-1.13,1.62-1.44.71-.32,1.47-.47,2.28-.47,2.71,0,4.06,1.14,4.06,3.43v6.64h-1.5v-6.58c0-.81-.21-1.43-.64-1.85-.43-.42-1.18-.64-2.26-.64-.65,0-1.19.1-1.62.29-.43.2-.77.46-1.02.79-.25.33-.43.71-.53,1.13-.1.42-.15.86-.15,1.32v5.54h-1.5v-6.64c0-.33-.04-.64-.13-.94-.09-.3-.23-.56-.43-.78-.2-.22-.46-.4-.8-.52-.33-.13-.74-.19-1.21-.19-.63,0-1.18.09-1.65.28-.47.18-.85.44-1.14.76s-.51.7-.65,1.14c-.14.44-.21.91-.21,1.43v5.46h-1.5v-9.79h1.38Z"/>
        <path d="m82.83,173.7c.25-.42.59-.76,1.01-1.02.43-.27.93-.46,1.5-.59.57-.13,1.21-.19,1.91-.19.53,0,1.06.04,1.59.12.53.08,1,.24,1.42.46.42.23.76.55,1.03.96.26.41.4.95.4,1.6v5.2c0,.48.29.72.86.72.17,0,.33-.03.47-.08v1.01c-.17.03-.32.04-.45.06-.13.01-.3.02-.5.02-.37,0-.67-.04-.9-.12-.23-.08-.4-.2-.52-.35-.12-.15-.21-.33-.24-.54-.04-.21-.06-.44-.06-.69h-.05c-.26.32-.53.6-.8.84-.27.25-.58.45-.91.62-.33.16-.72.29-1.14.38-.43.09-.94.13-1.53.13-.56,0-1.08-.05-1.57-.16s-.92-.28-1.28-.51c-.37-.23-.65-.53-.86-.89-.21-.36-.31-.79-.31-1.28,0-.68.19-1.22.56-1.6.37-.39.87-.68,1.48-.88.61-.2,1.31-.34,2.08-.43.77-.08,1.55-.16,2.34-.24.31-.03.58-.06.82-.09.23-.04.43-.1.58-.2.16-.09.28-.22.36-.39.09-.16.13-.38.13-.65,0-.4-.08-.74-.24-1-.16-.26-.39-.46-.68-.62-.29-.15-.62-.26-1-.31-.38-.06-.79-.09-1.22-.09-.93,0-1.69.18-2.29.54-.59.36-.9.94-.93,1.74h-1.47c.05-.57.19-1.06.44-1.48Zm7.35,2.92c-.09.14-.27.24-.54.3-.26.06-.5.11-.7.13-.62.09-1.26.17-1.92.24-.66.07-1.26.17-1.81.31-.54.14-.99.34-1.34.6-.35.26-.52.63-.52,1.11,0,.3.07.57.22.81.15.23.35.44.59.61.25.17.54.3.86.39.33.09.66.13,1,.13.56,0,1.1-.07,1.61-.21s.96-.34,1.34-.61c.38-.27.68-.59.91-.97s.34-.81.34-1.29v-1.56h-.05Z"/>
        <path d="m104.64,172.18v1.86h.05c.34-.68.89-1.21,1.65-1.58.76-.37,1.63-.56,2.6-.56.91,0,1.7.14,2.37.42s1.23.65,1.67,1.13c.45.47.78,1.02.99,1.65.22.63.32,1.29.32,1.98s-.11,1.36-.32,1.98c-.22.63-.55,1.18-.99,1.65-.45.47-1,.85-1.67,1.12-.67.27-1.46.41-2.37.41-.43,0-.86-.04-1.29-.13-.43-.09-.83-.22-1.2-.4-.37-.18-.7-.4-.98-.66-.28-.27-.5-.58-.66-.93h-.05v5.46h-1.45v-13.4h1.34Zm7.97,3.39c-.15-.5-.38-.95-.69-1.34-.32-.39-.72-.71-1.21-.96-.49-.25-1.08-.37-1.78-.37-.8,0-1.47.11-2.01.34-.54.23-.97.53-1.29.91-.32.38-.55.82-.68,1.33-.13.51-.2,1.04-.2,1.59,0,.51.07,1.01.22,1.51.15.5.38.95.72,1.34.33.39.76.71,1.29.96.53.25,1.18.37,1.95.37.69,0,1.28-.12,1.78-.37s.9-.57,1.21-.96c.32-.39.55-.84.69-1.34.15-.5.22-1,.22-1.51s-.07-1.01-.22-1.51Z"/>
        <path d="m119.3,178.74c.15.46.4.88.73,1.24.34.37.76.67,1.27.91.51.24,1.13.36,1.85.36,1.1,0,1.97-.23,2.59-.68.62-.46,1.06-1.06,1.3-1.82h1.51c-.32,1.11-.91,1.97-1.77,2.58-.86.61-2.07.91-3.64.91-.98,0-1.82-.14-2.53-.41-.71-.27-1.29-.65-1.74-1.12-.45-.47-.78-1.02-1-1.65-.22-.63-.32-1.29-.32-1.98,0-.65.11-1.28.32-1.9.22-.62.55-1.17,1-1.66.45-.49,1.03-.88,1.74-1.18.71-.3,1.56-.45,2.53-.45s1.84.16,2.55.47c.7.32,1.28.73,1.72,1.24.44.51.76,1.1.95,1.76.19.66.27,1.34.24,2.02h-9.54c0,.43.08.88.23,1.34Zm7.49-3.65c-.18-.42-.44-.79-.78-1.11s-.74-.58-1.23-.78c-.48-.2-1.02-.29-1.63-.29s-1.18.1-1.66.29c-.48.2-.89.46-1.23.78-.34.32-.6.7-.8,1.12s-.33.86-.4,1.3h8.02c-.02-.46-.12-.89-.3-1.31Z"/>
        <path d="m133.62,172.18v2.3h.05c.38-.8.96-1.41,1.76-1.84.79-.43,1.74-.63,2.84-.59v1.2c-.68-.03-1.29.05-1.84.22-.55.17-1.03.41-1.43.73-.4.32-.71.69-.93,1.13-.22.44-.33.91-.33,1.43v5.22h-1.48v-9.79h1.37Z"/>
        <path d="m143.61,173.19v8.79h-1.49v-8.79h-2.07v-1.01h2.07v-.89c0-.42.04-.8.12-1.16.08-.35.23-.66.45-.91.22-.25.52-.45.91-.59.38-.14.88-.21,1.47-.21.22,0,.42,0,.61.02.19.01.4.03.64.06v1.02c-.2-.03-.39-.05-.57-.07-.17-.02-.35-.03-.52-.03-.41,0-.72.05-.94.15-.22.1-.38.24-.48.41-.1.17-.16.37-.18.6-.02.23-.02.47-.02.74v.85h2.4v1.01h-2.4Z"/>
        <path d="m150.62,178.74c.15.46.39.88.72,1.24.33.37.75.67,1.25.91.5.24,1.11.36,1.81.36,1.08,0,1.93-.23,2.55-.68.61-.46,1.04-1.06,1.27-1.82h1.48c-.31,1.11-.89,1.97-1.73,2.58-.84.61-2.03.91-3.57.91-.96,0-1.79-.14-2.49-.41-.7-.27-1.27-.65-1.71-1.12-.44-.47-.77-1.02-.98-1.65-.21-.63-.32-1.29-.32-1.98,0-.65.11-1.28.32-1.9.21-.62.54-1.17.98-1.66.44-.49,1.01-.88,1.71-1.18.7-.3,1.53-.45,2.49-.45s1.81.16,2.5.47c.69.32,1.25.73,1.69,1.24.43.51.74,1.1.93,1.76.19.66.27,1.34.24,2.02h-9.36c0,.43.07.88.22,1.34Zm7.35-3.65c-.18-.42-.44-.79-.77-1.11s-.73-.58-1.2-.78c-.47-.2-1.01-.29-1.6-.29s-1.16.1-1.63.29c-.47.2-.87.46-1.2.78-.33.32-.59.7-.79,1.12s-.33.86-.39,1.3h7.87c-.02-.46-.11-.89-.29-1.31Z"/>
        <path d="m170.91,173.53c-.55-.42-1.32-.63-2.31-.63-.71,0-1.33.12-1.86.36-.53.24-.98.56-1.33.95-.35.39-.62.84-.8,1.34-.18.5-.27,1.01-.27,1.53s.09,1.03.27,1.53c.18.5.45.95.8,1.34.35.39.8.71,1.33.95.53.24,1.15.36,1.86.36.46,0,.89-.07,1.3-.21.41-.14.77-.33,1.08-.58.31-.25.57-.54.78-.88.2-.34.33-.71.38-1.12h1.48c-.2,1.19-.75,2.12-1.63,2.78-.88.66-2.01,1-3.39,1-.93,0-1.75-.14-2.46-.41-.72-.27-1.32-.64-1.8-1.11-.49-.47-.86-1.02-1.11-1.64-.25-.63-.38-1.29-.38-2s.13-1.38.38-2c.25-.63.62-1.17,1.11-1.64.49-.47,1.09-.84,1.8-1.12.71-.28,1.54-.42,2.46-.42,1.3,0,2.41.28,3.31.83.9.56,1.44,1.4,1.61,2.52h-1.49c-.2-.73-.58-1.31-1.13-1.73Z"/>
        <path d="m182.22,172.18v1.01h-2.57v6.6c0,.39.07.7.21.92.14.22.49.34,1.04.37.44,0,.88-.02,1.32-.06v1.01c-.23,0-.46,0-.69.02-.23.01-.46.02-.69.02-1.03,0-1.75-.15-2.15-.46-.41-.31-.6-.88-.59-1.72v-6.7h-2.2v-1.01h2.2v-2.94h1.54v2.94h2.57Z"/>
        <path d="m193.52,172.31c.71.28,1.32.65,1.8,1.12.49.47.86,1.02,1.11,1.64.25.63.38,1.29.38,2s-.13,1.38-.38,2c-.25.63-.62,1.17-1.11,1.64s-1.09.84-1.8,1.11c-.72.27-1.54.41-2.46.41s-1.75-.14-2.46-.41c-.72-.27-1.32-.64-1.8-1.11-.49-.47-.86-1.02-1.11-1.64-.25-.63-.38-1.29-.38-2s.13-1.38.38-2c.25-.63.62-1.17,1.11-1.64.49-.47,1.09-.84,1.8-1.12.71-.28,1.54-.42,2.46-.42s1.75.14,2.46.42Zm-4.32.95c-.53.24-.98.56-1.33.95-.35.39-.62.84-.8,1.34-.18.5-.27,1.01-.27,1.53s.09,1.03.27,1.53c.18.5.45.95.8,1.34.35.39.8.71,1.33.95.53.24,1.15.36,1.86.36s1.33-.12,1.86-.36c.53-.24.98-.56,1.33-.95.35-.39.62-.84.8-1.34.18-.5.27-1.01.27-1.53s-.09-1.03-.27-1.53c-.18-.5-.45-.95-.8-1.34-.35-.39-.8-.71-1.33-.95-.53-.24-1.15-.36-1.86-.36s-1.33.12-1.86.36Z"/>
        <path d="m200.88,179.96h1.98v2.01h-1.98v-2.01Z"/>
      </g>
      <g>
        <path class="cls-2" d="m152.07,45.81c-2.5,25.49-24,45.42-50.16,45.42h-.21c-.37,0-.73,0-1.1-.01-.79-.02-1.58-.06-2.36-.12-20.81-1.68-37.17-19.09-37.17-40.33,0-17.25,10.79-31.97,25.98-37.79,4.5-1.73,9.38-2.68,14.49-2.68,22.3,0,40.38,18.03,40.47,40.32,1.89-4.22,2.94-8.9,2.94-13.83,0-10.81-5.06-20.43-12.95-26.63-.1-.08-.2-.15-.3-.23-.87-.67-1.77-1.29-2.7-1.88-.11-.07-.23-.15-.35-.21-7.84-4.97-17.14-7.84-27.11-7.84-25.07,0-45.88,18.16-50.02,42.04-.49,2.83-.75,5.75-.75,8.73,0,28.04,22.73,50.77,50.77,50.77s50.77-22.73,50.77-50.77c0-1.67-.08-3.32-.24-4.95Z"/>
        <path class="cls-1" d="m83.17,60.97v11.34s7.2,4.89,17.13,4.89,20.63-3.6,20.63-15.06-8.41-13.81-13.99-16.25-12.4-3.73-12.27-8.08,10.3-6.36,24.2,1.28v-10.52s-7.42-4.15-18.17-4.15-19.6,6.09-18.27,17.05c1.22,10.08,12.94,13.23,20.05,16.06,5.02,2,6.06,2.88,5.62,6.39s-6.76,3.47-8.67,3.44c-7.23-.09-16.25-6.4-16.25-6.4Z"/>
      </g>
    </g>
  </g>
</svg>