<?xml version="1.0" encoding="UTF-8"?>
<svg id="Capa_2" data-name="Capa 2" xmlns="http://www.w3.org/2000/svg" viewBox="0 0 550.52 550.69">
  <defs>
    <style>
      .cls-1 {
        fill: #fff;
      }
    </style>
  </defs>
  <g id="Capa_1-2" data-name="Capa 1">
    <g id="Grupo_37" data-name="Grupo 37">
      <path id="Trazado_105" data-name="Trazado 105" class="cls-1" d="m299.99,450.4c-12.21,10.67-24.38,21.32-36.52,31.93-4.24,3.71-8.45,7.48-12.74,11.15-7.56,6.45-13.26,6.5-20.77-.06-30.29-26.46-60.54-52.97-90.73-79.54-2.74-2.86-6.96-3.74-10.61-2.21-27.94,8.63-55.99,16.91-84.01,25.33-12.83,3.85-18.27,11.06-18.28,24.3-.03,24.94.03,49.88-.03,74.82-.02,9.17-6.49,15.45-14.59,14.47-6.65-.75-11.63-6.43-11.52-13.12-.11-27.31-.41-54.62.13-81.92.4-20.09,14.56-36.98,35.11-43.19,44.17-13.34,88.36-26.6,132.57-39.78,2.24-.67,4.46-1.42,6.83-2.19,0-11.22.14-22.13-.14-33.03-.35-2.03-1.48-3.83-3.15-5.04-20.55-14.79-35.96-35.62-44.1-59.58-.58-1.64-1.75-2.99-3.29-3.8-9.52-4.34-17.47-11.49-22.78-20.5-8.45-12.62-13.23-27.34-13.82-42.52-.38-16.79,8.13-26.9,24.68-30.1,1.02-.2,2-.6,3.57-1.09-9.68-11.74-11.24-25.18-10.93-39.34.38-17.29.03-34.59.1-51.89C104.73,37.67,141.68.34,187.49.11c.22,0,.44,0,.65,0C222.9-.03,257.66-.03,292.42.1c45.8-.22,83.11,36.74,83.33,82.54,0,.23,0,.45,0,.68.1,17.84-.25,35.69.11,53.53.27,13.67-1.66,26.49-10.85,37.75,1.1.47,2.24.86,3.39,1.17,16.42,3.04,25.37,13.29,24.71,30.02-.57,20.05-8.64,39.17-22.61,53.57-2.52,2.88-5.6,5.22-9.06,6.87-5.01,2.31-8.79,6.67-10.35,11.96-19.88,46.11-55.76,71.86-104.67,79.83-13.54,2.21-26.7-1.81-39.47-6.41-1.68-.6-3.34-1.29-5.92-2.28v26.96c0,11.15-2.45,14.47-13.05,17.68-7.59,2.3-15.23,4.59-23.72,7.14l76.05,66.59c7.14-6.24,14.09-12.31,21.04-18.39,11.91-10.43,23.92-20.75,35.64-31.4,1.76-2.09,2.92-4.62,3.37-7.31.27-2.16.32-4.35.13-6.53-.25-7.09,5.08-13.14,12.15-13.8,3.04-.49,6.13-.76,9.2-1.17,3.56,0,6.46-2.87,6.47-6.44,0-1.78-.72-3.48-2.01-4.7-12.34-16.21-12.24-17.6,2.32-32.17,7.72-7.72,15.4-15.49,23.16-23.16,6.33-6.23,12.38-6.59,19.48-1.33,2.19,1.62,4.41,3.23,6.45,5.05,1.83,2.07,4.83,2.63,7.28,1.36,2.54-.99,4.18-3.48,4.08-6.21,2.36-19.53,4.05-20.93,24.01-20.93,10.92,0,21.84-.05,32.76,0,9.32.06,14.05,4.39,15.13,13.64.32,2.71.69,5.41,1.04,8.12.27,3.55,3.37,6.21,6.93,5.94,1.35-.1,2.64-.63,3.68-1.51,2.76-2.07,5.4-4.33,8.22-6.31,5.03-4.16,12.41-3.76,16.97.91,10.83,10.52,21.51,21.21,32.02,32.07,4.42,4.49,4.83,11.55.96,16.53-1.85,2.71-3.84,5.31-5.98,7.79-2.11,1.79-2.72,4.79-1.47,7.26.98,2.53,3.42,4.19,6.13,4.18,19.62,2.35,20.99,4,20.99,23.92,0,11.11.06,22.21-.02,33.32.71,7.34-4.66,13.88-12.01,14.59-.32.03-.63.05-.95.06-2.72.14-5.43.53-8.08,1.16-2.18.74-4.13,2.03-5.65,3.75-2,2.35-1.34,4.77.79,7.19,13.81,15.71,10.28,20.59-1.99,32.21-7.79,7.38-15.19,15.19-22.82,22.74-6.99,6.89-12.97,7.21-20.77,1.25-2.11-1.43-4.11-3.02-5.98-4.75-1.61-2.16-4.66-2.6-6.82-.99-.14.1-.27.21-.4.33-1.85,1.4-3.15,3.39-3.7,5.65-2.35,19.16-4.3,21.01-23.54,21.01-11.28,0-22.56.06-33.85-.02-7.38.71-13.94-4.71-14.65-12.09-.03-.27-.04-.55-.05-.82-.38-2.89-.71-5.78-1.08-8.66-.17-3.53-3.16-6.26-6.69-6.09-1.38.07-2.71.58-3.78,1.46-2.91,2.18-5.7,4.56-8.69,6.6-4.99,3.85-12.06,3.39-16.51-1.06-10.83-10.53-21.51-21.21-32.04-32.04-4.51-4.43-4.99-11.53-1.1-16.52,1.84-2.7,3.9-5.27,5.99-7.78,2.09-1.79,2.74-4.75,1.59-7.25-.89-2.84-3.66-4.65-6.62-4.33-1.45-.12-2.89-.34-4.31-.66-10.87-1.52-11.33-1.81-16.82-11.01m-6.51-262.93c-35.17-5.06-70.89-5-106.05.17,9.66,6.64,11.83,13.88,7.09,20.88-3.98,5.98-12.06,7.6-18.04,3.62-.06-.04-.12-.08-.18-.12-3.97-2.15-6.2-6.53-5.59-11.01,1.05-3.92,2.46-7.73,4.21-11.39l-26.06,3.57c0,17.84-.19,35.69.12,53.51.19,5.09,1.08,10.14,2.66,14.99,10.41,33.9,34.53,54.11,66.72,66.04,14.89,5.93,31.53,5.65,46.21-.76,5.73-2.29,11.33-4.9,16.76-7.83,24.62-14.18,43.1-33.53,48.95-62.29,1.42-9.16,2.03-18.42,1.83-27.69.28-12.13.07-24.26.07-35.98l-27.48-3.7c7.11,8.26,7.46,16.26,1.11,21.66-5.57,4.75-13.93,4.08-18.67-1.49-.09-.1-.17-.2-.26-.31-5.44-6.91-3.32-14.69,6.6-21.88m56.1-69.02c0-12.76.26-24.94-.05-37.11-.76-30.02-24.94-54.17-54.97-54.87-36.03-.44-72.07-.38-108.1-.02-25.29.44-47.12,17.83-53.22,42.37-1.14,4.4-1.78,8.91-1.9,13.44-.26,11.9-.09,23.81-.09,36.27,71.68-17.89,146.65-17.92,218.34-.08m14.47,229.7l-15.53,15.5c1.28,1.67,2.48,3.5,3.93,5.1,5.02,4.88,6.09,12.54,2.6,18.6-2.18,4.4-4.06,8.94-5.61,13.6-2.8,8.63-8.13,13.52-17.53,13.41-1.63.14-3.23.45-4.8.91v20.95c1.67.38,3.37.65,5.08.79,7.98-.5,15.14,4.87,16.9,12.67.91,3.15,2.19,6.18,3.8,9.04,6.07,10.35,5.29,19.64-3.6,28-.34.32-.42.92-.26.55l14.48,15.57c1.86-1.42,3.7-2.6,5.29-4.06,4.9-4.99,12.56-6.02,18.6-2.49,4.72,2.35,9.59,4.38,14.59,6.07,7.57,1.84,12.73,8.85,12.25,16.62.16,1.74.47,3.46.93,5.14h21.1c.29-2.28.67-4.25.76-6.22-.15-6.99,4.44-13.21,11.17-15.11,4.17-1.29,8.21-2.96,12.07-5,7.98-5.6,18.91-4.15,25.15,3.34.46.46,1.01.82,1.61,1.06l15.27-14.96c-.94-1.37-1.95-2.7-3.04-3.96-5.53-5.17-6.69-13.51-2.78-20,2.54-5.23,4.78-10.6,6.73-16.09,1.89-5.7,7.1-9.64,13.1-9.9,2.63-.29,5.25-.72,7.87-1.08v-20.82c-1.24-.45-2.52-.75-3.83-.89-10.63.29-16.45-5.36-19.12-15.11-.4-1.4-.98-2.75-1.72-4-6.42-11.16-7.63-21.82,2.83-31.44.11-.1.1-.34.13-.43l-14.78-14.92c-1.61,1.09-3.16,2.27-4.64,3.53-5.22,5.49-13.56,6.6-20.03,2.66-5.07-2.45-10.28-4.62-15.59-6.5-6.08-1.98-10.23-7.6-10.33-14-.21-2.44-.71-4.85-1.06-7.16h-20.7c-.33.74-.55,1.53-.66,2.33.43,12.29-6.39,18.62-17.51,21.5-.88.25-1.72.6-2.51,1.05-11.01,6.07-21.64,8.17-30.6-3.83m-14.73-202.67c-71.41-18.98-146.54-18.95-217.93.08,1.87,14.81,12.91,22.1,27.34,20.19,24.48-3.23,49.02-6.59,73.63-8,30.24-1.74,60.25,2.28,89.98,7.9,11.58,2.96,23.37-4.04,26.32-15.62.38-1.49.6-3.02.66-4.56m-227.14,55.69c-3.39.76-8.26-1.64-8.35,4.18.32,9.49,3.21,18.72,8.35,26.71v-30.88Zm236.45,29.3l1.64.44c2.19-7.1,4.83-14.1,6.43-21.33,1.65-7.48.14-8.64-8.06-7.97v28.86Z"/>
      <path id="Trazado_106" data-name="Trazado 106" class="cls-1" d="m244.11,236.14c1.58.98,2.69,1.58,3.71,2.33,5.91,4.08,7.38,12.18,3.3,18.09-2.27,3.28-5.92,5.34-9.9,5.58-6.36.32-12.73.32-19.09,0-7.04-.23-12.55-6.12-12.32-13.16.06-1.72.46-3.41,1.19-4.97,5.65-12.19,11.74-24.2,18.03-36.07,3.14-6.17,10.68-8.62,16.85-5.48.02,0,.04.02.06.03,6.41,3.03,9.2,10.65,6.26,17.11-2.37,5.48-5.22,10.75-8.07,16.54"/>
      <path id="Trazado_107" data-name="Trazado 107" class="cls-1" d="m240.38,78.72c-5.63,0-11.26.11-16.88-.03-7.22.32-13.34-5.27-13.66-12.5-.32-7.22,5.27-13.34,12.5-13.66.46-.02.93-.02,1.39.01,11.07-.12,22.14-.12,33.21,0,7.23-.47,13.47,5.01,13.94,12.24.47,7.23-5.01,13.47-12.24,13.94-.64.04-1.29.04-1.93-.02-5.44.09-10.89,0-16.33,0"/>
      <path id="Trazado_108" data-name="Trazado 108" class="cls-1" d="m425.47,372.35c29.46-.05,53.39,23.79,53.45,53.25.05,29.46-23.79,53.39-53.25,53.45-29.44.05-53.36-23.75-53.45-53.19-.22-29.34,23.39-53.29,52.73-53.51.18,0,.35,0,.53,0m0,26.23c-14.97.04-27.08,12.22-27.04,27.19.04,14.97,12.22,27.08,27.19,27.04,14.97-.04,27.08-12.22,27.04-27.19,0-.05,0-.09,0-.14.01-14.84-12.01-26.88-26.85-26.9-.11,0-.23,0-.34,0"/>
    </g>
  </g>
</svg>