<?xml version="1.0" encoding="UTF-8"?>
<svg id="Capa_2" data-name="Capa 2" xmlns="http://www.w3.org/2000/svg" viewBox="0 0 495.71 550.71">
  <defs>
    <style>
      .cls-1 {
        fill: #fff;
      }
    </style>
  </defs>
  <g id="Capa_1-2" data-name="Capa 1">
    <g id="Grupo_39" data-name="Grupo 39">
      <path id="Trazado_109" data-name="Trazado 109" class="cls-1" d="m292.13,533.43c-6.01,11.38-14.59,17.38-27.35,17.18-12.68-.2-19.04-10.15-26.97-16.9-2.89,3.87-6.08,7.51-9.54,10.88-10.65,8.78-26.23,8.03-35.99-1.74-23.75-23.3-47.56-46.54-71.15-70-2.82-3.41-7.19-5.14-11.58-4.58-1.52.16-3.06.17-4.58.02-8.27-.58-15.47-.59-20.25,8.85-3.3,6.5-11.01,9.29-18.71,9.37-13.19.14-26.39.38-39.57-.06-14.7-.47-26.37-12.55-26.32-27.26C-.04,416.36-.04,373.53.11,330.7c.03-15.23,12.4-27.54,27.62-27.51.13,0,.26,0,.39,0,12.04-.34,24.1-.29,36.14,0,10.42-.1,19.99,5.72,24.71,15.01,1.16,1.75,3.04,2.89,5.13,3.11,34.04.18,68.07.18,102.11,0,2.59-.23,5.05-1.22,7.08-2.83,11.25-8.23,22.19-16.89,33.5-25.01,8.71-6.41,19.41-9.53,30.2-8.82,7.26.43,14.53.43,21.79,0,10.58-.4,21,2.7,29.64,8.8,16.7,10.75,33.13,22.22,52.25,28.26,12.07,3.47,24.31,6.29,36.68,8.46,1.99.4,4.44-1.37,6.65-2.14,6.19-2.18,12.25-5.72,18.58-6.28,11.64-.71,23.31-.79,34.96-.25,15.04-.48,27.63,11.32,28.11,26.36.02.68.02,1.35-.01,2.03.09,42.26.09,84.52,0,126.78.75,14.84-10.67,27.48-25.52,28.23-.66.03-1.32.04-1.99.03-12.04.25-24.09.16-36.14,0-10.4.13-20-5.56-24.88-14.75-1.3-3.14-4.9-4.63-8.04-3.33-.85.35-1.6.89-2.22,1.57-3.4,3.08-6.64,6.33-9.7,9.75-1.03,1.3-1.59,2.92-1.58,4.58.25,12.57-4.97,22.01-16.44,27.11-10.97,4.88-21.26,2.63-30.66-5.59-3.63,8.63-11.24,14.94-20.4,16.91-9.41,1.76-19.09-1.13-25.98-7.77m-200.03-83.47c8.3,0,16.13.21,23.93-.08,4.99-.28,9.84,1.69,13.22,5.37,24.57,24.36,49.26,48.59,74.07,72.72,1.67,1.79,3.74,3.15,6.04,3.98,3.82,1.39,8.07-.45,9.66-4.19,1.89-4.34,3.12-9.25-.9-13.26-10.15-10.12-20.51-20.01-30.66-30.15-3.75-3.35-4.08-9.11-.72-12.86.14-.15.28-.3.43-.45,3.52-3.51,9.23-3.51,12.74.02.05.05.1.11.16.16,2.01,1.75,3.86,3.7,5.78,5.57,17.78,17.35,35.57,34.7,53.37,52.05,4.77,4.64,10.94,4.54,14.43-.1,2.88-4.58,2.42-10.51-1.14-14.59-4.79-4.69-9.61-9.31-14.4-13.98-8.21-8.01-16.45-15.98-24.58-24.08-4.57-4.55-4.83-9.74-.99-13.7,3.66-3.76,9.13-3.54,13.78.64,1.28,1.15,2.48,2.39,3.71,3.58,17.52,17.09,35.04,34.17,52.57,51.23,1.71,1.78,3.69,3.3,5.85,4.49,4.14,2.37,9.42.93,11.79-3.22.23-.4.43-.82.59-1.26,1.37-4.92,1.85-9.76-2.83-14.14-12.84-12.01-25.28-24.45-37.81-36.8-5.22-5.13-5.13-11.73-.02-15.21,4.26-2.9,8.36-2.15,13.22,2.59,19.04,18.53,38.07,37.07,57.09,55.61,1.54,1.66,3.47,2.92,5.61,3.66,4.02,1.43,8.45-.59,10.01-4.56,2.3-4.11,1.51-9.25-1.93-12.47-38.2-38.01-76.33-76.1-114.39-114.26-.46-.47-.96-.9-1.49-1.29-10.26,4.15-19.49,9.12-29.32,11.58-18.14,4.52-36.16,3.76-52.07-7.81-11.2-8.14-16.68-24.96-.31-36.43,3.27-2.29,6.23-5.03,10.13-8.21h-84.59l-.02,109.82Zm311.55-100.1c-12.65-3.42-25.08-6.31-37.21-10.13-20.99-6.62-39.2-18.68-57.44-30.55-6.26-4.46-13.86-6.64-21.54-6.18-6.29.49-12.61.49-18.9,0-8.65-.67-17.24,1.88-24.12,7.16-2.64,1.89-5.44,3.57-7.97,5.6-15.78,12.68-31.54,25.4-47.27,38.15-4.86,3.92-9.78,7.76-14.7,11.68,2.92,5.26,8.19,8.78,14.16,9.48,17.63,4.05,36.13-.35,50.05-11.9,8.76-6.77,11.13-6.75,18.88.99,37.97,37.97,75.93,75.94,113.9,113.91,1.57,1.57,3.21,3.08,4.92,4.69,8.21-7.28,13.84-18.09,27.24-14.02v-118.88Zm-330.18,45.02c0-20.83.04-41.66,0-62.5-.02-7.56-3.24-10.8-10.86-10.88-10.89-.1-21.79-.1-32.68,0-8.04.09-11.5,3.64-11.51,11.62-.02,41.29-.02,82.57,0,123.86,0,7.76,3.35,11.23,11.1,11.32,10.9.13,21.79.09,32.68.02,8.33-.05,11.25-3.08,11.28-11.51.03-20.64.03-41.29,0-61.93m403.86,19.26v-63.08c0-7.95-3.17-11.14-11.11-11.2-10.71-.08-21.42-.08-32.11,0-8.42.07-11.83,3.54-11.83,11.88-.02,41.09-.02,82.19,0,123.28,0,8.21,3.23,11.57,11.35,11.65,10.7.11,21.41.08,32.11,0,8.74-.05,11.59-2.96,11.6-11.76.02-20.26.02-40.52,0-60.78"/>
      <path id="Trazado_110" data-name="Trazado 110" class="cls-1" d="m266.29,83.47c-2,5.95-3.85,11.36-5.65,16.79-2.18,6.59,1.54,17.09,8,19.04,13.74,4.1,18.8,12.42,16.39,26.5-1.11,6.5,1.96,14.63-.96,19.66-2.81,4.86-10.86,6.7-16.63,9.84-5.35,4.22-8.04,10.97-7.07,17.71.06.18.1.37.15.55,1.81,5.99,6.08,12.6,4.75,17.78-1.35,5.24-8.18,9.11-12.71,13.47-4.53,4.36-8.62,10.9-13.97,12.24-5.29,1.33-11.91-2.63-17.94-4.3-6.96-.9-13.86,2.01-18.09,7.6-2.9,5.36-4.57,12.84-9.07,15.48-4.74,2.78-12.19,1.01-18.46,1.05s-13.83,1.96-18.54-.82c-4.65-2.74-6.47-10.31-9.49-15.79-4.18-5.37-10.8-8.25-17.58-7.64-.38.05-.75.14-1.11.28-12.49,7.08-22.25,3.96-30.64-7.3-3.94-5.29-11.73-8.89-13.26-14.46-1.44-5.27,3.06-12.16,4.95-18.34,1.63-5.33-2.8-15.36-7.88-17.89-5.47-2.74-13.06-4.15-15.74-8.57-2.84-4.66-1.09-12.17-1.14-18.46-.05-6.68-2.09-14.67.86-19.67,2.77-4.7,10.91-6.21,16.67-9.16,4.32-2.22,8.74-12.56,7.35-17.18-.59-2.61-1.45-5.15-2.56-7.58-4.46-8.12-2.83-14.18,4.65-19.83,6.06-4.57,10.98-10.63,16.72-15.65,1.82-1.32,4.08-1.88,6.3-1.55,3.94.75,7.79,1.89,11.49,3.42,3.95,1.41,8.29,1.18,12.07-.63,4.85-1.3,8.71-4.96,10.29-9.72,3.42-11.76,11.08-15.73,22.97-13.9,6.15.93,12.6-.07,18.89.31,2.07.3,3.93,1.42,5.17,3.1,2.14,3.17,3.93,6.56,5.34,10.12,2.09,4.66,5.91,8.32,10.66,10.2,5.29,2.42,11.44,2.05,16.41-.99,8.05-3.81,13.59-1.99,19.15,4.64,5,5.98,11.16,10.97,16.75,16.46.92,1,1.77,2.07,2.54,3.19m-21.2,5.41l1.11-1.2c-3.16-2.38-6.18-4.95-9.03-7.7-1.76-2.61-5.22-3.43-7.97-1.91-7.9,4.19-17.45,3.72-24.9-1.23-1.99-1.14-4.12-2.03-6.33-2.65-4.77-1.04-8.58-4.6-9.95-9.29-2.49-8.55-8.04-11.42-16.69-10.1-3.06.47-5.49.63-6.56,3.96-2.78,9.32-10.46,16.35-19.99,18.28-2.03.55-3.98,1.39-5.78,2.47-3.58,2.4-8.21,2.61-11.99.53-8.35-4.62-14.45-1.98-20.01,4.98-1.93,2.41-3.04,4.23-1.49,6.97,5.32,9.41,3.92,18.48-1.25,27.42-.79,1.31-1.41,2.72-1.83,4.19-1.04,5.37-5.1,9.65-10.4,10.98-7.77,2.03-10.04,6.92-9.37,14.7.38,4.4,1.21,7.28,5.56,8.52,8.1,2.07,14.31,8.59,15.96,16.79.08.38.21.74.39,1.08,5.02,8.38,6.21,16.91,1.16,25.76-1.79,2.58-1.15,6.12,1.43,7.9.21.15.43.28.66.4,1.56,1.11,2.95,2.45,4.13,3.96,2.03,3.21,6.27,4.17,9.48,2.15,7.2-3.81,15.88-3.51,22.8.79,1.67.93,3.47,1.61,5.34,2.03,6.13,1.1,11.11,5.58,12.86,11.56,2.11,6.87,6.5,9.74,13.6,8.32.57-.1,1.14-.1,1.71,0,3.06.92,6.29-.81,7.22-3.87.06-.2.11-.39.15-.59,2.61-8.97,10.14-15.64,19.36-17.16,2.23-.53,4.39-1.35,6.41-2.43,3.67-2.19,8.22-2.28,11.97-.23,8.17,4.44,14.12,1.71,19.54-4.99,1.88-2.32,3.29-4.1,1.75-6.93-5.02-8.79-4.51-19.69,1.33-27.96,1.07-1.82,1.88-3.77,2.42-5.81.9-4,4-7.15,7.99-8.11,9.13-2.37,12.14-8.11,10.78-17.26-.49-3.28-1.2-5.47-4.34-6.36-8.86-2.26-15.64-9.4-17.44-18.37-.4-1.68-1.06-3.28-1.97-4.75-3.29-5.04-3.53-11.48-.62-16.75,1.07-2.65,1.99-5.36,2.78-8.11"/>
      <path id="Trazado_111" data-name="Trazado 111" class="cls-1" d="m366.46,166c-3.73-1.45-6.39-2.42-8.99-3.52-3.07-1.54-6.22-2.91-9.44-4.1-7.83-2.33-10.72-7.48-10.64-15.43.1-9.37-3.55-13.03-13.09-13.26-7.66-.18-12.75-2.89-14.7-10.71-.93-3.51-2.25-6.9-3.94-10.12-3.55-6.95-2.66-12.86,3.47-17.81,3.64-2.36,5.36-6.8,4.26-10.99-.91-3.04-2.49-5.83-4.64-8.16-4.8-4.19-5.81-11.26-2.39-16.64,1.94-3.72,3.57-7.6,4.86-11.6,1.4-6.28,7.42-10.4,13.78-9.44,4.19.31,8.78.48,11.16-3.94,1.61-2.67,2.55-5.7,2.74-8.81-.83-6.96,3.8-13.39,10.66-14.81,4.18-1.36,8.24-3.07,12.13-5.1,4.43-2.69,10.15-1.83,13.58,2.05,1.48,1.48,3.15,2.78,4.75,4.15,3.95,4.06,10.45,4.14,14.5.18.08-.08.16-.16.24-.24,6.99-7.92,14.36-8.27,22.85-3.08,1.14.71,2.36,1.26,3.65,1.63,9.37,2.58,13.79,8.26,13.28,18.38-.34,6.84,3.8,10.38,10.84,11.28,1.89.31,3.79.51,5.7.63,4.77-.1,8.98,3.08,10.18,7.69,1.86,5.21,3.81,10.39,5.94,15.5,2.15,4.44,1.12,9.76-2.52,13.08-2.68,2.58-4.83,5.67-6.32,9.08-1.67,4.58,1.07,8.49,4.35,11.62,5.3,4.29,6.41,11.93,2.56,17.55-2,3.69-3.65,7.57-4.91,11.58-1.53,5.77-7,9.59-12.95,9.05-3.34-.11-6.67.53-9.74,1.86-3.82,2.11-5.82,6.45-4.96,10.72.94,8.02-2.94,12.52-10.42,14.72-4.21,1.27-8.32,2.83-12.31,4.68-4.56,2.4-10.17,1.45-13.68-2.34-1.73-1.79-3.69-3.34-5.83-4.61-4.41-2.27-8.83-3.05-13.13.81-3.45,3.1-7.33,5.72-10.89,8.45m-34.72-84.78c.42,7.01.82,13.33-4.98,17.96-2.64,1.39-3.71,4.63-2.39,7.32.85,3.1,3.6,5.31,6.81,5.47,13.3,1.82,23.56,12.61,24.71,25.98.38,2.2,1.76,4.1,3.74,5.15,2.27.82,4.79.62,6.89-.57,10.4-8.18,25.04-8.22,35.49-.1,2.51,2.32,6.21,2.81,9.23,1.2,3.88-1.34,3.29-4.17,3.54-6.89,1-10.85,13.52-22.87,24.33-23.19,2.92-.09,5.47.04,6.8-3.61,1.26-3.45,1.97-5.92-.84-9.23-8.11-10.29-7.71-24.91.95-34.74,2.04-1.99,2.5-5.09,1.14-7.59-.72-2.84-3.37-4.76-6.29-4.56-3.22.23-6.44-.51-9.23-2.13-7.15-6.67-16.82-11.94-15.68-24.3.15-1.65-2.66-4.24-4.66-5.22-1.98-.51-4.09-.17-5.81.94-2.91,1.73-5.57,6.09-8.07,5.9-9.35-.68-19.83,2.83-27.56-5.74-1.98-2.66-5.64-3.4-8.5-1.74-3.9,1.61-4.3,4.13-4.42,7.55.27,2.45-.21,4.93-1.37,7.11-6.73,7.46-12.05,17.21-24.52,16.41-2.06.28-3.85,1.56-4.79,3.42-.86,2.28-1.44,6.1-.17,7.52,4.71,4.6,6.82,11.24,5.65,17.72"/>
      <path id="Trazado_112" data-name="Trazado 112" class="cls-1" d="m45.84,339.56c4.98,0,9.1,3.86,9.44,8.82.31,4.88-3.39,9.09-8.27,9.4-.11,0-.23.01-.34.02-5,.25-9.26-3.59-9.54-8.58.03-4.96,3.78-9.11,8.71-9.65"/>
      <path id="Trazado_113" data-name="Trazado 113" class="cls-1" d="m441.03,458.51c.18-5.01,4.39-8.93,9.4-8.76,5.01.18,8.93,4.39,8.76,9.4,0,.28-.03.55-.07.83-.59,4.98-5.1,8.54-10.08,7.95-4.72-.56-8.22-4.67-8.01-9.42"/>
      <path id="Trazado_114" data-name="Trazado 114" class="cls-1" d="m229.72,147.03c.08,30.39-24.49,55.08-54.88,55.16-30.39.08-55.08-24.49-55.16-54.88-.08-30.39,24.49-55.08,54.88-55.16,30.39-.08,55.08,24.49,55.16,54.88m-18.34.3c.35-20.26-15.79-36.96-36.05-37.31-20.26-.35-36.96,15.79-37.31,36.05,0,.41,0,.82,0,1.23.33,20.26,17.02,36.42,37.28,36.09,19.78-.32,35.75-16.27,36.09-36.05"/>
      <path id="Trazado_115" data-name="Trazado 115" class="cls-1" d="m413.21,83c-.07,15.11-12.37,27.31-27.49,27.24s-27.31-12.37-27.24-27.49c.2-14.86,12.12-26.9,26.98-27.24,14.99-.33,27.41,11.55,27.75,26.54,0,.32,0,.63,0,.95m-18.35-.04c.16-4.86-3.65-8.94-8.51-9.1-.17,0-.33,0-.5,0-5.01.15-9,4.22-9.05,9.23.2,4.98,4.4,8.87,9.38,8.67,4.75-.19,8.55-4.03,8.67-8.79"/>
    </g>
  </g>
</svg>